<?xml version="1.0" encoding="utf-8"?>
<!-- Generator: Adobe Illustrator 21.0.0, SVG Export Plug-In . SVG Version: 6.00 Build 0)  -->
<svg version="1.1" id="Mast" xmlns="http://www.w3.org/2000/svg" xmlns:xlink="http://www.w3.org/1999/xlink" x="0px" y="0px"
	 viewBox="0 0 504 108" style="enable-background:new 0 0 504 108;" xml:space="preserve">
<style type="text/css">
	.st0{fill:#6082C0;}
	.st1{fill:#ECB941;}
	.st2{fill:#993022;}
	.st3{fill:url(#_Path__1_);}
	.st4{fill:url(#_Path_2_1_);}
	.st5{fill:url(#_Path_3_1_);}
	.st6{fill:url(#_Path_4_1_);}
	.st7{fill:#FFFFFF;}
	.st8{fill:#074473;}
	.st9{fill:none;}
</style>
<title>2018-regional-header-jb-sponsorbar_Blank</title>
<rect y="54" class="st0" width="504" height="18"/>
<rect x="449.6" y="77.5" class="st1" width="1.4" height="25.2"/>
<path class="st2" d="M458.9,84.5c-0.1-0.2-0.3-0.4-0.6-0.5h0c-0.2-0.1-0.5-0.2-0.8-0.2c-0.5,0-1,0.2-1.3,0.6c-0.3,0.4-0.5,1-0.5,1.5
	c0,0.5,0.1,1.1,0.5,1.5c0.3,0.3,0.8,0.5,1.2,0.5c0.2,0,0.4,0,0.5-0.1c0.3-0.1,0.5-0.2,0.7-0.4c0.1-0.1,0.2-0.3,0.3-0.4
	c0.1-0.1,0.1-0.3,0.2-0.5l0,0h-0.7l0,0c0,0.2-0.1,0.3-0.2,0.4c-0.2,0.2-0.5,0.3-0.8,0.3c-0.3,0-0.6-0.1-0.8-0.3
	c-0.2-0.3-0.3-0.6-0.3-0.9h2.8v0c0-0.3,0-0.6-0.1-0.8C459.1,84.9,459,84.7,458.9,84.5z M457.5,84.4c0.3,0,0.7,0.1,0.8,0.4
	c0.1,0.2,0.2,0.4,0.2,0.6h-2c0-0.3,0.1-0.6,0.3-0.8C456.9,84.5,457.2,84.4,457.5,84.4z"/>
<polygon class="st2" points="461.3,86.9 460.4,83.9 460.4,83.8 459.6,83.8 461,87.7 461,87.7 461.7,87.7 463.1,83.9 463.1,83.8 
	462.4,83.8 "/>
<path class="st2" d="M465.1,87.8c0.2,0,0.4,0,0.5-0.1c0.3-0.1,0.5-0.2,0.7-0.4c0.1-0.1,0.2-0.3,0.3-0.4c0.1-0.1,0.1-0.3,0.2-0.5l0,0
	h-0.7l0,0c0,0.2-0.1,0.3-0.2,0.4c-0.2,0.2-0.5,0.3-0.8,0.3c-0.3,0-0.6-0.1-0.8-0.3c-0.2-0.3-0.3-0.6-0.3-0.9h2.8v0
	c0-0.3,0-0.6-0.1-0.8c0-0.2-0.1-0.5-0.3-0.7c-0.1-0.2-0.3-0.4-0.6-0.5h0c-0.2-0.1-0.5-0.2-0.8-0.2c-0.5,0-1,0.2-1.3,0.6
	c-0.3,0.4-0.5,1-0.5,1.5c0,0.5,0.1,1.1,0.5,1.5C464.2,87.6,464.7,87.8,465.1,87.8z M464.2,85.4c0-0.3,0.1-0.6,0.3-0.8
	c0.2-0.2,0.4-0.3,0.7-0.3c0.3,0,0.7,0.1,0.8,0.4c0.1,0.2,0.2,0.4,0.2,0.6L464.2,85.4z"/>
<path class="st2" d="M468.5,85.7c0-0.2,0-0.4,0-0.6c0-0.1,0.1-0.3,0.2-0.4c0.1-0.1,0.3-0.2,0.5-0.3c0.1,0,0.2,0,0.4,0
	c0.2,0,0.5,0.1,0.6,0.3c0.1,0.2,0.1,0.4,0.1,0.5v2.4h0.7v-2.5c0-0.3,0-0.6-0.2-0.9c-0.2-0.4-0.7-0.6-1.1-0.6c-0.2,0-0.5,0-0.7,0.1
	c-0.2,0.1-0.4,0.2-0.5,0.4v-0.5h-0.7v3.9h0.7L468.5,85.7z"/>
<path class="st2" d="M472.1,86.9c0,0.2,0,0.4,0.2,0.6c0.2,0.2,0.4,0.3,0.6,0.2c0.1,0,0.2,0,0.3,0c0.1,0,0.2,0,0.2,0l0,0v-0.6l0,0
	c0,0-0.1,0-0.1,0c-0.1,0-0.2,0-0.3,0c-0.1,0-0.1-0.1-0.1-0.2v-2.4h0.6v-0.6h-0.6v-1.1h-0.7v1.1h-0.5v0.6h0.5L472.1,86.9z"/>
<path class="st2" d="M457.6,93.3l-0.4-0.1c-0.1,0-0.3-0.1-0.4-0.2c-0.1-0.1-0.2-0.2-0.2-0.4c0-0.1,0.1-0.3,0.2-0.3
	c0.2-0.1,0.4-0.1,0.5-0.1c0.3,0,0.6,0.1,0.8,0.2c0.1,0.1,0.1,0.2,0.1,0.4l0,0h0.7l0,0c0-0.3-0.1-0.5-0.2-0.7
	c-0.3-0.4-0.8-0.6-1.3-0.5c-0.4,0-0.8,0.1-1.1,0.3c-0.3,0.2-0.4,0.5-0.4,0.9c0,0.3,0.2,0.6,0.4,0.7c0.2,0.1,0.5,0.2,0.7,0.3l0.5,0.1
	c0.2,0,0.4,0.1,0.5,0.2c0.1,0.1,0.2,0.2,0.2,0.3c0,0.2-0.1,0.4-0.3,0.5c-0.2,0.1-0.4,0.2-0.6,0.2c-0.3,0-0.6-0.1-0.8-0.3
	c-0.1-0.1-0.2-0.3-0.2-0.5l0,0h-0.7l0,0c0,0.4,0.1,0.7,0.4,1c0.3,0.3,0.8,0.4,1.2,0.4c0.4,0,0.9-0.1,1.2-0.4
	c0.3-0.2,0.4-0.6,0.4-0.9c0-0.3-0.1-0.6-0.4-0.8C458.2,93.4,457.9,93.3,457.6,93.3z"/>
<path class="st2" d="M461.5,91.6c-0.3,0-0.5,0.1-0.8,0.2c-0.1,0.1-0.3,0.2-0.4,0.3v-0.4h-0.7V97h0.7v-1.9c0.1,0.1,0.2,0.2,0.3,0.3
	c0.2,0.1,0.5,0.2,0.7,0.2c0.4,0,0.7-0.1,1-0.3c0.5-0.5,0.7-1.1,0.7-1.8c0-0.5-0.1-1-0.5-1.4C462.4,91.7,461.9,91.6,461.5,91.6z
	 M461.4,92.2c0.4,0,0.8,0.2,0.9,0.6c0.1,0.2,0.1,0.5,0.1,0.8c0,0.4-0.1,0.8-0.3,1.1c-0.3,0.4-0.9,0.5-1.3,0.2
	c-0.1-0.1-0.2-0.2-0.3-0.4c-0.1-0.2-0.1-0.5-0.1-0.7c0-0.3,0-0.6,0.1-0.9C460.6,92.4,461,92.2,461.4,92.2L461.4,92.2z"/>
<path class="st2" d="M465.5,91.5c-0.5,0-1,0.2-1.3,0.6c-0.3,0.4-0.5,1-0.5,1.5c0,0.5,0.1,1,0.5,1.4c0.3,0.4,0.8,0.6,1.3,0.5
	c0.5,0,1.1-0.2,1.4-0.6c0.3-0.4,0.5-1,0.4-1.5c0-0.5-0.1-1.1-0.5-1.5C466.4,91.7,466,91.5,465.5,91.5z M465.5,95
	c-0.3,0-0.6-0.1-0.8-0.4c-0.2-0.3-0.3-0.6-0.3-1c0-0.4,0.1-0.7,0.3-1.1c0.2-0.3,0.5-0.5,0.8-0.4c0.4,0,0.7,0.2,0.9,0.5
	c0.1,0.3,0.2,0.6,0.2,0.8c0,0.4-0.1,0.7-0.2,1.1C466.2,94.9,465.8,95.1,465.5,95L465.5,95z"/>
<path class="st2" d="M470,91.6c-0.2,0-0.5,0-0.7,0.1c-0.2,0.1-0.4,0.2-0.5,0.4v-0.5h-0.7v3.9h0.7v-2c0-0.2,0-0.4,0-0.6
	c0-0.1,0.1-0.3,0.2-0.4c0.1-0.1,0.3-0.2,0.5-0.3c0.1,0,0.2,0,0.4,0c0.2,0,0.5,0.1,0.6,0.3c0.1,0.2,0.1,0.4,0.1,0.5v2.4h0.7V93
	c0-0.3,0-0.6-0.2-0.9C470.9,91.7,470.5,91.5,470,91.6z"/>
<path class="st2" d="M474,93.3l-0.4-0.1c-0.1,0-0.3-0.1-0.4-0.2c-0.1-0.1-0.2-0.2-0.2-0.4c0-0.1,0.1-0.3,0.2-0.3
	c0.2-0.1,0.4-0.1,0.5-0.1c0.3,0,0.6,0.1,0.8,0.2c0.1,0.1,0.1,0.2,0.1,0.4l0,0h0.7l0,0c0-0.3-0.1-0.5-0.2-0.7
	c-0.3-0.4-0.8-0.6-1.3-0.5c-0.4,0-0.8,0.1-1.1,0.3c-0.3,0.2-0.4,0.5-0.4,0.9c0,0.3,0.2,0.6,0.4,0.7c0.2,0.1,0.5,0.2,0.7,0.3l0.5,0.1
	c0.2,0,0.4,0.1,0.5,0.2c0.1,0.1,0.2,0.2,0.2,0.3c0,0.2-0.1,0.4-0.3,0.5c-0.2,0.1-0.4,0.2-0.6,0.2c-0.3,0-0.6-0.1-0.8-0.3
	c-0.1-0.1-0.2-0.3-0.2-0.5l0,0h-0.7l0,0c0,0.4,0.1,0.7,0.4,1c0.3,0.3,0.8,0.4,1.2,0.4c0.4,0,0.9-0.1,1.2-0.4
	c0.3-0.2,0.4-0.6,0.4-0.9c0-0.3-0.1-0.6-0.4-0.8C474.6,93.4,474.3,93.3,474,93.3z"/>
<path class="st2" d="M477.7,91.5c-0.5,0-1,0.2-1.3,0.6c-0.3,0.4-0.5,1-0.5,1.5c0,0.5,0.1,1,0.5,1.4c0.3,0.4,0.8,0.6,1.3,0.5
	c0.5,0,1.1-0.2,1.4-0.6c0.3-0.4,0.5-1,0.4-1.5c0-0.5-0.1-1.1-0.5-1.5C478.6,91.7,478.1,91.5,477.7,91.5z M477.6,95
	c-0.3,0-0.6-0.1-0.8-0.4c-0.2-0.3-0.3-0.6-0.3-1c0-0.4,0.1-0.7,0.3-1.1c0.2-0.3,0.5-0.5,0.8-0.4c0.4,0,0.7,0.2,0.9,0.5
	c0.1,0.3,0.2,0.6,0.2,0.8c0,0.4-0.1,0.7-0.2,1.1C478.3,94.9,478,95.1,477.6,95L477.6,95z"/>
<path class="st2" d="M482.1,91.6C482.1,91.6,482,91.6,482.1,91.6c-0.1,0-0.1,0-0.1,0c-0.3,0-0.5,0.1-0.7,0.3
	c-0.1,0.1-0.2,0.2-0.3,0.4v-0.6h-0.7v3.9h0.7v-2.2c0-0.3,0.1-0.5,0.3-0.7c0.2-0.2,0.4-0.3,0.7-0.3c0,0,0.1,0,0.1,0c0,0,0.1,0,0.1,0
	l0,0v-0.7L482.1,91.6z"/>
<rect x="449.6" y="19.6" class="st1" width="1.4" height="25.2"/>
<path class="st2" d="M459.1,27.8c0-0.5-0.1-1-0.5-1.4c-0.3-0.3-0.7-0.5-1.1-0.5c-0.3,0-0.5,0.1-0.8,0.2c-0.1,0.1-0.3,0.2-0.4,0.3V26
	h-0.7l0,5.2v0h0.7l0-1.9c0.1,0.1,0.2,0.2,0.3,0.3c0.2,0.1,0.5,0.2,0.7,0.2c0.4,0,0.7-0.1,1-0.3C458.9,29.1,459.1,28.5,459.1,27.8z
	 M458.3,27.6c0,0.1,0,0.2,0,0.3c0,0.4-0.1,0.8-0.3,1.1c-0.3,0.4-0.9,0.5-1.3,0.2c-0.1-0.1-0.2-0.2-0.3-0.4c-0.1-0.2-0.1-0.5-0.1-0.7
	c0-0.3,0-0.6,0.1-0.9c0.2-0.5,0.7-0.8,1.2-0.6c0.3,0.1,0.5,0.3,0.6,0.5c0,0.1,0.1,0.2,0.1,0.2C458.3,27.4,458.3,27.5,458.3,27.6
	L458.3,27.6z"/>
<path class="st2" d="M461.8,25.9L461.8,25.9c-0.1,0-0.1,0-0.2,0s-0.1,0-0.1,0c-0.3,0-0.5,0.1-0.7,0.3c-0.1,0.1-0.2,0.2-0.3,0.4V26
	h-0.7l0,3.8h0.7l0-2.2c0-0.3,0.1-0.5,0.2-0.7c0.2-0.2,0.4-0.3,0.7-0.3c0,0,0.1,0,0.1,0c0,0,0.1,0,0.1,0l0,0L461.8,25.9z"/>
<path class="st2" d="M464,25.9c-0.5,0-1,0.2-1.3,0.6c-0.3,0.4-0.5,1-0.5,1.5c0,0.5,0.1,1,0.5,1.4c0.3,0.4,0.8,0.5,1.2,0.5l0,0
	c0.5,0,1.1-0.2,1.4-0.6c0.3-0.4,0.5-1,0.4-1.5c0-0.5-0.1-1-0.5-1.4C464.9,26.1,464.5,25.9,464,25.9z M464,29.3L464,29.3
	c-0.3,0-0.6-0.1-0.8-0.4c-0.2-0.3-0.3-0.6-0.3-1c0-0.4,0.1-0.7,0.3-1c0.2-0.3,0.5-0.4,0.8-0.4c0.4,0,0.7,0.2,0.9,0.5
	c0.1,0.3,0.2,0.5,0.2,0.8c0,0.4-0.1,0.7-0.2,1C464.7,29.2,464.4,29.4,464,29.3L464,29.3z"/>
<path class="st2" d="M468.1,31.3c0.6,0.1,1.2-0.2,1.5-0.8c0.2-0.4,0.2-0.7,0.2-1.1l0-3.4l-0.6,0l0,0v0.4c-0.1-0.1-0.2-0.2-0.3-0.3v0
	c-0.2-0.1-0.5-0.2-0.8-0.2c-0.4,0-0.9,0.2-1.1,0.5c-0.3,0.4-0.5,0.9-0.5,1.5c0,0.5,0.1,1,0.5,1.4c0.3,0.3,0.7,0.4,1.1,0.4l0,0
	c0.2,0,0.5,0,0.7-0.1c0.1-0.1,0.1-0.1,0.2-0.2c0,0,0,0,0.1,0c0.1,0,0.1-0.1,0.2-0.1c0,0.3,0,0.7-0.1,1c-0.2,0.3-0.5,0.5-0.9,0.5h0
	c-0.2,0-0.5-0.1-0.6-0.2c-0.1-0.1-0.2-0.2-0.2-0.4l0,0h-0.7l0,0c0,0.3,0.2,0.7,0.5,0.9C467.3,31.3,467.7,31.4,468.1,31.3L468.1,31.3
	z M469.2,27.9c0,0.3,0,0.5-0.1,0.8c-0.2,0.4-0.5,0.6-0.9,0.6l0,0c-0.3,0-0.5-0.1-0.7-0.3c-0.2-0.3-0.3-0.6-0.3-0.9
	c0-0.3,0-0.6,0.1-0.9c0.1-0.4,0.5-0.6,0.9-0.6c0.3,0,0.5,0.1,0.7,0.3C469.1,27.1,469.2,27.5,469.2,27.9L469.2,27.9z"/>
<path class="st2" d="M472.6,25.9C472.6,25.9,472.5,25.9,472.6,25.9c-0.3,0-0.6,0.1-0.7,0.3c-0.1,0.1-0.2,0.2-0.3,0.4V26h-0.7l0,3.8
	h0.7l0-2.2c0-0.3,0.1-0.5,0.2-0.7c0.2-0.2,0.4-0.3,0.7-0.3c0,0,0.1,0,0.1,0c0,0,0.1,0,0.1,0l0,0v-0.7l0,0
	C472.7,25.9,472.6,25.9,472.6,25.9z"/>
<path class="st2" d="M476.7,29.3C476.7,29.3,476.6,29.3,476.7,29.3c-0.2,0-0.2,0-0.2,0c0,0,0-0.1,0-0.1l0-2.1c0-0.3-0.1-0.6-0.4-0.8
	c-0.3-0.2-0.7-0.3-1.1-0.3c-0.4,0-0.7,0.1-1,0.3c-0.3,0.2-0.5,0.6-0.5,1l0,0h0.6l0,0c0-0.2,0.1-0.3,0.1-0.4c0.2-0.2,0.4-0.3,0.7-0.3
	c0.2,0,0.4,0,0.6,0.1c0.1,0.1,0.2,0.3,0.2,0.4c0,0.1,0,0.2,0,0.2c-0.1,0.1-0.2,0.2-0.3,0.2l-1,0.1c-0.3,0-0.6,0.2-0.9,0.4
	c-0.2,0.2-0.4,0.5-0.3,0.8c0,0.3,0.1,0.6,0.3,0.8c0.2,0.2,0.6,0.3,0.9,0.3c0.3,0,0.6-0.1,0.8-0.2c0.2-0.1,0.4-0.2,0.5-0.4
	c0,0.1,0.1,0.2,0.1,0.3c0.1,0.2,0.3,0.3,0.5,0.2c0.2,0,0.3,0,0.4-0.1l0,0v-0.5l0,0C476.8,29.3,476.7,29.3,476.7,29.3z M475.7,27.9
	v0.5c0,0.4-0.2,0.7-0.5,0.8c-0.2,0.1-0.4,0.2-0.6,0.2c-0.2,0-0.3,0-0.5-0.2c-0.1-0.1-0.2-0.2-0.2-0.4c0-0.2,0.1-0.4,0.3-0.5
	c0.2-0.1,0.3-0.1,0.5-0.1l0.4,0c0.1,0,0.2,0,0.4-0.1C475.6,28,475.6,27.9,475.7,27.9z"/>
<path class="st2" d="M482,27.1l0,2.6h0.7l0-2.5c0-0.3,0-0.5-0.2-0.8c-0.2-0.4-0.6-0.6-1.1-0.6l0,0c-0.2,0-0.5,0-0.7,0.1
	c-0.2,0.1-0.4,0.2-0.5,0.4c-0.1-0.1-0.2-0.2-0.3-0.3c-0.2-0.2-0.5-0.2-0.7-0.2c-0.3,0-0.5,0.1-0.7,0.2c-0.1,0.1-0.3,0.2-0.4,0.3V26
	h-0.7l0,3.8h0.7l0-2c0-0.4,0.1-0.7,0.3-1c0.2-0.2,0.4-0.3,0.6-0.3c0.2,0,0.4,0.1,0.5,0.2c0.1,0.2,0.1,0.4,0.1,0.5l0,2.5l0.7,0l0-2.2
	c0-0.3,0.1-0.6,0.3-0.8c0.2-0.2,0.4-0.2,0.6-0.2h0c0.2,0,0.3,0,0.4,0.1C481.9,26.8,482,27,482,27.1z"/>
<path class="st2" d="M486,27.3l0,2.5h0.7l0-2.2c0-0.3,0.1-0.6,0.3-0.8c0.2-0.2,0.4-0.2,0.6-0.2c0.2,0,0.3,0,0.4,0.1
	c0.1,0.1,0.2,0.3,0.2,0.5l0,2.6l0.7,0l0-2.5c0-0.3,0-0.5-0.2-0.8c-0.2-0.4-0.6-0.6-1.1-0.6c-0.2,0-0.5,0-0.7,0.1
	c-0.2,0.1-0.4,0.2-0.5,0.4c-0.1-0.1-0.2-0.2-0.3-0.3c-0.2-0.2-0.5-0.2-0.7-0.2l0,0c-0.3,0-0.5,0.1-0.7,0.2c-0.1,0.1-0.3,0.2-0.4,0.3
	V26l-0.7,0l0,3.8l0.7,0l0-2c0-0.4,0.1-0.7,0.3-1c0.2-0.2,0.4-0.3,0.6-0.3c0.2,0,0.4,0.1,0.5,0.2C485.9,26.9,486,27.1,486,27.3z"/>
<rect x="489.9" y="24.6" class="st2" width="0.7" height="0.8"/>
<rect x="489.9" y="26" class="st2" width="0.7" height="3.8"/>
<path class="st2" d="M494,26.8c0.1,0.2,0.1,0.4,0.1,0.5l0,2.4h0.7l0-2.4c0-0.3,0-0.6-0.2-0.9c-0.2-0.4-0.7-0.6-1.1-0.6l0,0
	c-0.2,0-0.5,0-0.7,0.1c-0.2,0.1-0.4,0.2-0.5,0.4V26h-0.7l0,3.8h0.7l0-2c0-0.2,0-0.4,0-0.6c0-0.1,0.1-0.3,0.2-0.4
	c0.1-0.1,0.3-0.2,0.4-0.3c0.1,0,0.2,0,0.4,0C493.6,26.5,493.9,26.6,494,26.8z"/>
<path class="st2" d="M498.8,30.5c0.2-0.4,0.2-0.7,0.2-1.1l0-3.4h-0.6v0.4c-0.1-0.1-0.2-0.2-0.3-0.3v0c-0.2-0.1-0.5-0.2-0.8-0.2
	c-0.4,0-0.9,0.2-1.1,0.5c-0.3,0.4-0.5,0.9-0.5,1.5c0,0.5,0.1,1,0.5,1.4c0.3,0.3,0.7,0.4,1.1,0.4c0.2,0,0.5,0,0.7-0.1
	c0.1-0.1,0.1-0.1,0.2-0.2c0,0,0,0,0,0c0.1,0,0.1-0.1,0.2-0.1c0,0.3,0,0.7-0.1,1c-0.2,0.3-0.5,0.5-0.9,0.5c-0.2,0-0.5-0.1-0.7-0.2
	c-0.1-0.1-0.2-0.2-0.2-0.4l0,0h-0.7l0,0c0,0.3,0.2,0.7,0.5,0.9c0.3,0.2,0.7,0.3,1,0.3C497.9,31.4,498.5,31.1,498.8,30.5z
	 M498.3,27.8c0,0.3,0,0.5-0.1,0.8c-0.2,0.4-0.5,0.6-0.9,0.6c-0.3,0-0.5-0.1-0.7-0.3c-0.2-0.3-0.3-0.6-0.3-0.9c0-0.3,0-0.6,0.1-0.9
	c0.1-0.4,0.5-0.6,0.9-0.6c0.3,0,0.5,0.1,0.7,0.3C498.3,27.1,498.4,27.5,498.3,27.8L498.3,27.8z"/>
<path class="st2" d="M457,36.9c0,0-0.1,0-0.1,0c-0.1,0-0.2,0-0.2,0c-0.1,0-0.1-0.1-0.1-0.2l0-2.4l0.6,0l0,0l0-0.6l-0.6,0v-1h-0.7v1
	l-0.5,0l0,0l0,0.6l0.5,0l0,2.4c0,0.2,0,0.4,0.2,0.6c0.2,0.2,0.4,0.3,0.6,0.2c0.1,0,0.2,0,0.3,0c0.1,0,0.2,0,0.2,0l0,0v-0.5l0,0
	C457.1,36.9,457,36.9,457,36.9z"/>
<path class="st2" d="M459.4,33.6L459.4,33.6c-0.5,0-1,0.2-1.3,0.6c-0.3,0.4-0.5,1-0.5,1.5c0,0.5,0.1,1,0.5,1.4
	c0.3,0.4,0.8,0.5,1.2,0.5c0.5,0,1.1-0.2,1.4-0.6c0.3-0.4,0.5-1,0.4-1.5c0-0.5-0.1-1-0.5-1.4C460.3,33.8,459.9,33.6,459.4,33.6z
	 M460.2,36.6c-0.2,0.3-0.5,0.5-0.8,0.5c-0.3,0-0.6-0.1-0.8-0.4c-0.2-0.3-0.3-0.6-0.3-1c0-0.4,0.1-0.7,0.3-1c0.2-0.3,0.5-0.4,0.8-0.4
	h0c0.4,0,0.7,0.2,0.9,0.5c0.1,0.3,0.2,0.5,0.2,0.8C460.4,35.9,460.4,36.2,460.2,36.6L460.2,36.6z"/>
<path class="st2" d="M463.6,33.6L463.6,33.6c-0.5,0-1,0.2-1.3,0.6c-0.3,0.4-0.5,1-0.5,1.5c0,0.5,0.1,1,0.5,1.4
	c0.3,0.4,0.8,0.5,1.2,0.5c0.5,0,1.1-0.2,1.4-0.6c0.3-0.4,0.5-1,0.4-1.5c0-0.5-0.1-1-0.5-1.4C464.5,33.8,464.1,33.6,463.6,33.6z
	 M464.4,36.6c-0.2,0.3-0.5,0.5-0.8,0.5c-0.3,0-0.6-0.1-0.8-0.4c-0.2-0.3-0.3-0.6-0.3-1c0-0.4,0.1-0.7,0.3-1c0.2-0.3,0.5-0.4,0.8-0.4
	h0c0.4,0,0.7,0.2,0.9,0.5c0.1,0.3,0.2,0.5,0.2,0.8C464.6,35.9,464.6,36.2,464.4,36.6L464.4,36.6z"/>
<polygon class="st2" points="466.9,32.3 466.3,32.3 466.3,37.4 466.3,37.5 466.9,37.5 466.9,32.3 "/>
<path class="st2" d="M469.7,35.3l-0.4-0.1c-0.1,0-0.3-0.1-0.4-0.1c-0.1-0.1-0.2-0.2-0.2-0.4c0-0.1,0.1-0.3,0.2-0.3
	c0.2-0.1,0.4-0.1,0.5-0.1c0.3,0,0.5,0.1,0.8,0.2c0.1,0.1,0.1,0.2,0.1,0.4l0,0l0.7,0v0c0-0.3-0.1-0.5-0.2-0.7
	c-0.3-0.4-0.8-0.5-1.3-0.5c-0.4,0-0.8,0.1-1.1,0.3c-0.3,0.2-0.4,0.5-0.4,0.9c0,0.3,0.2,0.6,0.4,0.7c0.2,0.1,0.5,0.2,0.7,0.3l0.5,0.1
	c0.2,0,0.4,0.1,0.5,0.2c0.1,0.1,0.2,0.2,0.2,0.3c0,0.2-0.1,0.4-0.3,0.4c-0.2,0.1-0.4,0.2-0.6,0.1h0c-0.3,0-0.6-0.1-0.8-0.3
	c-0.1-0.1-0.2-0.3-0.2-0.5l0,0l-0.7,0l0,0c0,0.4,0.1,0.7,0.4,1c0.3,0.3,0.8,0.4,1.2,0.4l0,0c0.4,0,0.9-0.1,1.2-0.4
	c0.3-0.2,0.4-0.5,0.4-0.9c0-0.3-0.1-0.6-0.4-0.8C470.3,35.4,470,35.3,469.7,35.3z"/>
<path class="st2" d="M475.3,35.3l-0.4-0.1c-0.1,0-0.3-0.1-0.4-0.1c-0.1-0.1-0.2-0.2-0.2-0.4c0-0.1,0.1-0.3,0.2-0.3
	c0.2-0.1,0.4-0.1,0.5-0.1c0.3,0,0.5,0.1,0.8,0.2c0.1,0.1,0.1,0.2,0.1,0.4l0,0l0.7,0v0c0-0.3-0.1-0.5-0.2-0.7
	c-0.3-0.4-0.8-0.5-1.3-0.5c-0.4,0-0.8,0.1-1.1,0.3c-0.3,0.2-0.4,0.5-0.4,0.9c0,0.3,0.2,0.6,0.4,0.7c0.2,0.1,0.5,0.2,0.7,0.3l0.5,0.1
	c0.2,0,0.4,0.1,0.5,0.2c0.1,0.1,0.2,0.2,0.2,0.3c0,0.2-0.1,0.4-0.3,0.4c-0.2,0.1-0.4,0.2-0.6,0.1h0c-0.3,0-0.6-0.1-0.8-0.3
	c-0.1-0.1-0.2-0.3-0.2-0.5l0,0h-0.7l0,0c0,0.4,0.1,0.7,0.4,1c0.3,0.3,0.8,0.4,1.2,0.4l0,0c0.4,0,0.9-0.1,1.2-0.4
	c0.3-0.2,0.4-0.5,0.4-0.9c0-0.3-0.1-0.6-0.4-0.8C475.9,35.4,475.6,35.3,475.3,35.3z"/>
<path class="st2" d="M479.2,33.6c-0.3,0-0.5,0.1-0.8,0.2c-0.1,0.1-0.3,0.2-0.4,0.3l0-0.4l-0.6,0l0,0l0,5.2v0l0.7,0l0,0l0-1.9
	c0.1,0.1,0.2,0.2,0.3,0.3c0.2,0.1,0.5,0.2,0.7,0.2c0.4,0,0.7-0.1,1-0.3c0.5-0.5,0.7-1.1,0.7-1.8c0-0.5-0.1-1-0.5-1.4
	C480.1,33.8,479.6,33.6,479.2,33.6z M478.1,36c0-0.1,0-0.2,0-0.3c0-0.3,0-0.6,0.1-0.9c0.2-0.5,0.7-0.8,1.2-0.6
	c0.3,0.1,0.5,0.3,0.6,0.5c0,0.1,0.1,0.2,0.1,0.3c0,0.1,0,0.1,0,0.2c0,0.1,0,0.2,0,0.3c0,0.4-0.1,0.8-0.3,1.1
	c-0.2,0.2-0.4,0.4-0.7,0.4l0,0c-0.4,0-0.7-0.2-0.9-0.6c0-0.1-0.1-0.2-0.1-0.2C478.1,36.1,478.1,36.1,478.1,36z"/>
<path class="st2" d="M483.2,33.6c-0.5,0-1,0.2-1.3,0.6c-0.3,0.4-0.5,1-0.5,1.5c0,0.5,0.1,1,0.5,1.4c0.3,0.4,0.8,0.5,1.2,0.5l0,0
	c0.5,0,1.1-0.2,1.4-0.6c0.3-0.4,0.5-1,0.4-1.5c0-0.5-0.1-1-0.5-1.4C484.1,33.7,483.7,33.6,483.2,33.6z M484,36.5
	c-0.2,0.3-0.5,0.5-0.8,0.5h0c-0.3,0-0.6-0.1-0.8-0.4c-0.2-0.3-0.3-0.6-0.3-1c0-0.4,0.1-0.7,0.3-1c0.2-0.3,0.5-0.4,0.8-0.4
	c0.4,0,0.7,0.2,0.9,0.5c0.1,0.3,0.2,0.5,0.2,0.8C484.3,35.9,484.2,36.2,484,36.5L484,36.5z"/>
<path class="st2" d="M488.8,34.2c-0.2-0.4-0.7-0.6-1.1-0.6c-0.2,0-0.5,0-0.7,0.1c-0.2,0.1-0.4,0.2-0.5,0.4l0-0.5h-0.7l0,3.8v0h0.7
	l0-2c0-0.2,0-0.4,0-0.6c0-0.1,0.1-0.3,0.2-0.4c0.1-0.1,0.3-0.2,0.4-0.3c0.1,0,0.2,0,0.4,0c0.2,0,0.5,0.1,0.6,0.3
	c0.1,0.2,0.1,0.4,0.1,0.5l0,2.4l0.7,0l0,0l0-2.4C489,34.7,488.9,34.4,488.8,34.2z"/>
<path class="st2" d="M491.7,35.2l-0.4-0.1c-0.1,0-0.3-0.1-0.4-0.1c-0.1-0.1-0.2-0.2-0.2-0.4c0-0.1,0.1-0.3,0.2-0.3
	c0.2-0.1,0.4-0.1,0.5-0.1c0.3,0,0.5,0.1,0.8,0.2c0.1,0.1,0.1,0.2,0.1,0.4l0,0l0.7,0v0c0-0.3-0.1-0.5-0.2-0.7
	c-0.3-0.4-0.8-0.5-1.3-0.5c-0.4,0-0.8,0.1-1.1,0.3c-0.3,0.2-0.4,0.5-0.4,0.9c0,0.3,0.2,0.6,0.4,0.7c0.2,0.1,0.5,0.2,0.7,0.3l0.5,0.1
	c0.2,0,0.4,0.1,0.5,0.2c0.1,0.1,0.2,0.2,0.2,0.3c0,0.2-0.1,0.4-0.3,0.4c-0.2,0.1-0.4,0.2-0.6,0.1h0c-0.3,0-0.6-0.1-0.8-0.3
	c-0.1-0.1-0.2-0.3-0.2-0.5l0,0h-0.7l0,0c0,0.4,0.1,0.7,0.4,1c0.3,0.3,0.8,0.4,1.2,0.4l0,0c0.4,0,0.9-0.1,1.2-0.4
	c0.3-0.2,0.4-0.5,0.4-0.9c0-0.3-0.1-0.6-0.4-0.8C492.3,35.4,492,35.3,491.7,35.2z"/>
<path class="st2" d="M495.4,33.6c-0.5,0-1,0.2-1.3,0.6c-0.3,0.4-0.5,1-0.5,1.5c0,0.5,0.1,1,0.5,1.4c0.3,0.4,0.8,0.5,1.2,0.5l0,0
	c0.5,0,1.1-0.2,1.4-0.6c0.3-0.4,0.5-1,0.4-1.5c0-0.5-0.1-1-0.5-1.4C496.3,33.7,495.8,33.5,495.4,33.6z M496.2,36.5
	c-0.2,0.3-0.5,0.5-0.8,0.5h0c-0.3,0-0.6-0.1-0.8-0.4c-0.2-0.3-0.3-0.6-0.3-1c0-0.4,0.1-0.7,0.3-1c0.2-0.3,0.5-0.4,0.8-0.4
	c0.4,0,0.7,0.2,0.9,0.5c0.1,0.3,0.2,0.5,0.2,0.8C496.4,35.9,496.4,36.2,496.2,36.5L496.2,36.5z"/>
<path class="st2" d="M499.9,33.6L499.9,33.6c-0.1,0-0.1,0-0.2,0s-0.1,0-0.1,0c-0.3,0-0.5,0.1-0.7,0.3c-0.1,0.1-0.2,0.2-0.3,0.4
	l0-0.6H498l0,3.8v0h0.7l0-2.2c0-0.3,0.1-0.5,0.3-0.7c0.2-0.2,0.4-0.3,0.7-0.3c0,0,0.1,0,0.1,0c0,0,0.1,0,0.1,0l0,0L499.9,33.6z"/>
<linearGradient id="_Path__1_" gradientUnits="userSpaceOnUse" x1="411.5885" y1="60.3811" x2="437.5977" y2="76.079" gradientTransform="matrix(1 0 0 -1 0 110)">
	<stop  offset="0" style="stop-color:#F9EE4F"/>
	<stop  offset="1" style="stop-color:#D97A44"/>
</linearGradient>
<path id="_Path_" class="st3" d="M440.4,33.4c0.6-0.6,0.7-1.6,0.1-2.2c-0.6-0.6-1.5-0.7-2.1-0.1l0,0l-27.8,15.2
	c-1.7,0.7-2.5,2.7-1.8,4.4c0.7,1.7,2.7,2.5,4.4,1.8c0.2-0.1,0.3-0.2,0.5-0.3l0,0c0.1-0.1,0.2-0.1,0.2-0.2l25.9-18.2
	C439.9,33.8,440.3,33.5,440.4,33.4L440.4,33.4L440.4,33.4z"/>
<linearGradient id="_Path_2_1_" gradientUnits="userSpaceOnUse" x1="417.0691" y1="98.0853" x2="440.8087" y2="77.302" gradientTransform="matrix(1 0 0 -1 0 110)">
	<stop  offset="0" style="stop-color:#D25B6A"/>
	<stop  offset="0.495" style="stop-color:#D66C55"/>
	<stop  offset="1" style="stop-color:#D97A44"/>
</linearGradient>
<path id="_Path_2" class="st4" d="M440.4,31.2L440.4,31.2l-21.1-20.8c-1-1-2.6-1.1-3.6-0.2c-0.5,0.5-0.8,1.2-0.8,1.9l0,0
	c0,0.7,0.3,1.3,0.7,1.8l0,0l0,0c0.1,0.1,0.2,0.2,0.4,0.3l22.4,19.1l0,0c0.6,0.6,1.6,0.6,2.2-0.1C441,32.8,441,31.8,440.4,31.2
	L440.4,31.2z"/>
<linearGradient id="_Path_3_1_" gradientUnits="userSpaceOnUse" x1="418.5904" y1="79.2639" x2="404.521" y2="88.0503" gradientTransform="matrix(1 0 0 -1 0 110)">
	<stop  offset="0" style="stop-color:#735AA2"/>
	<stop  offset="0.2721" style="stop-color:#915295"/>
	<stop  offset="0.7267" style="stop-color:#BD4582"/>
	<stop  offset="0.957" style="stop-color:#CE407A"/>
</linearGradient>
<path id="_Path_3" class="st5" d="M420,29.4c0,0-13.1-10.3-13.3-10.5l0,0l0,0c-1.8-1-4-0.5-5.1,1.3c-1,1.7-0.5,4,1.2,5.1l0,0l0,0
	c0.2,0.1,0.4,0.2,0.6,0.3c0.1,0,15.1,6.2,15.1,6.2l0,0c0.7,0.3,1.6,0,1.9-0.7C420.7,30.5,420.5,29.8,420,29.4L420,29.4z"/>
<linearGradient id="_Path_4_1_" gradientUnits="userSpaceOnUse" x1="418.3334" y1="99.1494" x2="404.5978" y2="87.8049" gradientTransform="matrix(1 0 0 -1 0 110)">
	<stop  offset="0" style="stop-color:#D25B6A"/>
	<stop  offset="0.3241" style="stop-color:#D15170"/>
	<stop  offset="1" style="stop-color:#CE407A"/>
</linearGradient>
<path id="_Path_4" class="st6" d="M417.4,9.6c-0.5,0-1.1,0.2-1.5,0.5L402.6,19c0,0-0.1,0-0.1,0.1l0,0l0,0c-1.7,1.2-2,3.5-0.8,5.2
	c1.2,1.7,3.5,2,5.2,0.8l0,0l0,0l0,0c0.2-0.2,0.4-0.3,0.6-0.5L419,14.2l0,0c0.6-0.5,1-1.2,1-2l0,0C419.9,10.8,418.8,9.6,417.4,9.6z"
	/>
<g id="_Group_">
	<rect id="_Path_5" x="412.5" y="22" width="16.8" height="16.8"/>
	<rect id="_Path_6" x="413.9" y="35.7" class="st7" width="6.3" height="1.1"/>
	<g id="_Group_2">
		<path id="_Path_7" class="st7" d="M413.8,26.4l0.5-0.5c0.1,0.1,0.3,0.2,0.4,0.3c0.2,0,0.3-0.1,0.3-0.4v-1.7h0.8v1.7
			c0,0.3-0.1,0.6-0.3,0.8c-0.2,0.2-0.5,0.3-0.8,0.3C414.4,26.9,414.1,26.7,413.8,26.4z"/>
		<polygon id="_Path_8" class="st7" points="416,24.1 418.2,24.1 418.2,24.7 416.8,24.7 416.8,25.2 418.1,25.2 418.1,25.8 
			416.8,25.8 416.8,26.2 418.2,26.2 418.2,26.8 416,26.8 		"/>
		<polygon id="_Path_9" class="st7" points="419.2,24.8 418.4,24.8 418.4,24.1 420.8,24.1 420.8,24.8 420,24.8 420,26.8 419.2,26.8 
					"/>
		<path class="st7" d="M415.8,28.8c0.3-0.1,0.4-0.3,0.4-0.6v0c0-0.2-0.1-0.3-0.2-0.4c-0.2-0.2-0.5-0.3-0.7-0.2h-1.4v2.7h1.4
			c0.7,0,1-0.3,1-0.8v0C416.4,29.1,416.1,28.8,415.8,28.8z M414.6,28.1h0.5c0.2,0,0.3,0.1,0.3,0.2v0c0,0.2-0.1,0.2-0.4,0.2h-0.5
			V28.1z M415.6,29.4c0,0.2-0.1,0.3-0.4,0.3h-0.6v-0.5h0.6C415.5,29.1,415.6,29.2,415.6,29.4L415.6,29.4z"/>
		<path class="st7" d="M418.3,29.3c0.4-0.1,0.6-0.5,0.6-0.8v0c0-0.2-0.1-0.5-0.2-0.6c-0.2-0.2-0.6-0.3-0.9-0.3h-1.3v2.7h0.8v-0.8
			h0.3l0.6,0.8h0.9L418.3,29.3z M418.2,28.5c0,0.2-0.2,0.3-0.4,0.3h-0.5v-0.7h0.5C418,28.1,418.2,28.2,418.2,28.5L418.2,28.5z"/>
		<path class="st7" d="M420.5,27.5h-0.7l-1.2,2.8h0.8l0.2-0.5h1.1l0.2,0.5h0.8L420.5,27.5z M419.9,29.1l0.3-0.8l0.3,0.8H419.9z"/>
		<rect id="_Path_10" x="421.8" y="27.5" class="st7" width="0.8" height="2.7"/>
		<polygon id="_Path_11" class="st7" points="422.7,27.5 423.5,27.5 424.6,28.9 424.6,27.5 425.3,27.5 425.3,30.2 424.7,30.2 
			423.5,28.7 423.5,30.2 422.7,30.2 		"/>
		<path id="_Path_12" class="st7" d="M425.4,29.8l0.4-0.5c0.3,0.2,0.6,0.3,0.9,0.3c0.2,0,0.3-0.1,0.3-0.2v0c0-0.1-0.1-0.2-0.5-0.3
			c-0.6-0.1-1-0.3-1-0.9v0c0-0.5,0.4-0.9,1.1-0.9c0.4,0,0.8,0.1,1.1,0.4l-0.4,0.5c-0.2-0.2-0.5-0.3-0.8-0.3c-0.2,0-0.3,0.1-0.3,0.2
			v0c0,0.1,0.1,0.2,0.5,0.3c0.6,0.1,1,0.3,1,0.9v0c0,0.6-0.4,0.9-1.1,0.9C426.2,30.3,425.7,30.1,425.4,29.8z"/>
	</g>
</g>
<path class="st0" d="M91.3,19.3c-1.2-0.1-2.3,0.7-2.4,1.9c0,1,1,1.8,2.4,1.8s2.4-0.7,2.4-1.8C93.6,20,92.5,19.2,91.3,19.3z"/>
<path class="st0" d="M89.8,26h2.9v16.3h-2.9V26z"/>
<path class="st0" d="M107.9,26.8c1.2,0.9,2,2.4,2.2,4.6h-2.8c-0.1-0.9-0.5-1.8-1.2-2.5c-0.8-0.7-1.9-1.1-2.9-1c-1.7-0.1-3.3,1-4,2.6
	c-0.6,1.3-0.8,2.7-0.8,4.1c0,1.5,0.3,2.9,1.1,4.1c0.8,1.1,2.1,1.8,3.4,1.7c1.1,0.1,2.1-0.3,2.9-1c0.8-0.8,1.3-1.8,1.5-2.9h2.8
	c-0.2,1.8-1,3.6-2.4,4.8c-1.4,1-3.2,1.6-4.9,1.5c-2.1,0.1-4.1-0.8-5.4-2.3c-1.4-1.6-2.1-3.7-2-5.9c-0.1-2.4,0.6-4.8,2.2-6.7
	c1.4-1.6,3.5-2.5,5.6-2.4C104.8,25.4,106.5,25.9,107.9,26.8z"/>
<path class="st0" d="M112.7,26h2.8v2.2c0.5-0.7,1.2-1.3,1.9-1.7c1-0.6,2.2-0.9,3.5-0.9c1.9,0,3.7,0.7,5,2.1c1.5,1.7,2.2,3.9,2.1,6.1
	c0,3.6-1,6.1-3,7.6c-1.2,1-2.8,1.5-4.4,1.5c-1.1,0-2.3-0.2-3.3-0.8c-0.7-0.4-1.2-1-1.7-1.6v8.4h-2.9L112.7,26z M123.6,38.9
	c1-1.4,1.5-3.1,1.3-4.8c0-1.2-0.2-2.3-0.6-3.4c-1-2.3-3.6-3.3-5.9-2.3c-1.1,0.5-2,1.4-2.4,2.5c-0.4,1.2-0.6,2.6-0.6,3.9
	c0,1.1,0.2,2.2,0.6,3.2c0.7,1.7,2.4,2.7,4.1,2.5C121.6,40.5,122.8,39.9,123.6,38.9z"/>
<path class="st0" d="M142.7,26.8c1.2,0.9,2,2.4,2.2,4.6h-2.8c-0.1-0.9-0.5-1.8-1.2-2.5c-0.8-0.7-1.9-1.1-2.9-1c-1.7-0.1-3.3,1-4,2.6
	c-0.6,1.3-0.8,2.7-0.8,4.1c0,1.5,0.3,2.9,1.1,4.1c0.8,1.1,2.1,1.8,3.4,1.7c1.1,0.1,2.1-0.3,2.9-1c0.8-0.8,1.3-1.8,1.5-2.9h2.8
	c-0.2,1.8-1,3.6-2.4,4.8c-1.4,1-3.2,1.6-4.9,1.5c-2.1,0.1-4.1-0.8-5.4-2.3c-1.4-1.6-2.1-3.7-2-5.9c-0.1-2.4,0.6-4.8,2.2-6.7
	c1.4-1.6,3.5-2.5,5.6-2.4C139.7,25.4,141.3,25.9,142.7,26.8z"/>
<rect x="192.7" y="25.4" class="st8" width="1.6" height="6"/>
<path class="st8" d="M193.5,24.7c-0.5,0-0.9-0.3-0.9-0.7c0.1-0.5,0.7-0.8,1.2-0.7c0.3,0.1,0.6,0.3,0.7,0.7
	C194.4,24.4,194,24.7,193.5,24.7z"/>
<path class="st8" d="M151.7,23.3h1.7v8.1h-1.7V23.3z"/>
<path class="st8" d="M155,25.4h1.6v0.7c0.4-0.6,1.1-0.9,1.8-0.9c1.3,0,2,0.7,2,2.1v4.1h-1.6v-3.6c0-0.8-0.2-1.2-0.9-1.2
	c-0.6,0-1.2,0.4-1.2,1.1c0,0.1,0,0.1,0,0.2v3.5H155V25.4z"/>
<path class="st8" d="M163.4,31.5c-1.3,0-1.6-0.5-1.6-1.7v-3.2H161v-1.1h0.8v-1.6h1.6v1.6h0.9v1.1h-0.9v3.3c0,0.3,0.1,0.4,0.5,0.4
	h0.4v1.2C163.9,31.4,163.6,31.5,163.4,31.5z"/>
<path class="st8" d="M166.6,27.8c0.1-0.8,0.5-1.2,1.2-1.2c0.7,0,1.2,0.4,1.2,1.2H166.6z M168.9,29.6c-0.2,0.4-0.6,0.7-1.1,0.7
	c-0.8,0-1.2-0.5-1.2-1.4h4c0-0.1,0-0.3,0-0.4c0-2.1-1-3.2-2.9-3.2c-1.7,0-2.8,1.2-2.8,3.2c0,2,1.1,3.2,2.8,3.2
	c1.3,0.1,2.5-0.8,2.8-2L168.9,29.6z"/>
<path class="st8" d="M171.7,25.4h1.5v1c0.3-0.7,1-1.2,1.7-1.2c0.1,0,0.2,0,0.2,0v1.6h-0.5c-0.6-0.1-1.2,0.4-1.3,1c0,0.1,0,0.2,0,0.3
	v3.2h-1.6L171.7,25.4z"/>
<path class="st8" d="M176,25.4h1.6v0.7c0.4-0.6,1.1-0.9,1.8-0.9c1.3,0,2,0.7,2,2.1v4.1h-1.6v-3.6c0-0.8-0.2-1.2-0.9-1.2
	c-0.6,0-1.2,0.4-1.2,1.1c0,0.1,0,0.1,0,0.2v3.5H176L176,25.4z"/>
<path class="st8" d="M186.1,28.4V29c0.1,0.7-0.5,1.3-1.2,1.4c-0.1,0-0.1,0-0.2,0c-0.4,0-0.7-0.2-0.8-0.6c0,0,0-0.1,0-0.1
	c0-0.5,0.2-0.7,0.8-0.8C185.2,28.8,185.7,28.6,186.1,28.4z M186.1,30.6c0,0.3,0.1,0.5,0.2,0.7h1.7v-0.3c-0.3-0.1-0.3-0.4-0.3-0.8
	v-3.4c0-1.1-0.9-1.7-2.6-1.7c-1.5,0-2.4,0.8-2.4,2v0.1h1.5v-0.1c0-0.5,0.3-0.7,1-0.7c0.7,0,1,0.2,1,0.7c0,0.6-0.4,0.5-1.7,0.7
	c-1.4,0.2-2,0.7-2,1.9c-0.1,0.9,0.5,1.8,1.4,1.9c0.1,0,0.2,0,0.4,0C185,31.6,185.7,31.3,186.1,30.6L186.1,30.6z"/>
<path class="st8" d="M190.8,31.5c-1.3,0-1.6-0.5-1.6-1.7v-3.2h-0.8v-1.1h0.8v-1.6h1.6v1.6h0.9v1.1h-0.9v3.3c0,0.3,0.1,0.4,0.5,0.4
	h0.4v1.2C191.3,31.4,191,31.5,190.8,31.5z"/>
<path class="st8" d="M197,28.4c0-1.2,0.5-1.8,1.4-1.8s1.4,0.7,1.4,1.8s-0.5,1.9-1.4,1.9S197,29.6,197,28.4z M195.4,28.4
	c-0.1,1.7,1.2,3.1,2.9,3.2c1.7,0.1,3.1-1.2,3.2-2.9c0-0.1,0-0.2,0-0.3c0.1-1.7-1.2-3.1-2.9-3.2s-3.1,1.2-3.2,2.9
	C195.4,28.2,195.4,28.3,195.4,28.4z"/>
<path class="st8" d="M202.5,25.4h1.6v0.7c0.4-0.6,1.1-0.9,1.8-0.9c1.3,0,2,0.7,2,2.1v4.1h-1.6v-3.6c0-0.8-0.2-1.2-0.9-1.2
	c-0.6,0-1.2,0.4-1.2,1.1c0,0.1,0,0.1,0,0.2v3.5h-1.6V25.4z"/>
<path class="st8" d="M212.6,28.4V29c0.1,0.7-0.5,1.3-1.2,1.4c-0.1,0-0.1,0-0.2,0c-0.4,0-0.7-0.2-0.8-0.6c0,0,0-0.1,0-0.1
	c0-0.5,0.2-0.7,0.8-0.8C211.7,28.8,212.2,28.6,212.6,28.4z M212.7,30.6c0,0.3,0.1,0.5,0.2,0.7h1.7v-0.3c-0.3-0.1-0.3-0.4-0.3-0.8
	v-3.4c0-1.1-0.9-1.7-2.6-1.7c-1.5,0-2.4,0.8-2.4,2v0.1h1.5v-0.1c0-0.5,0.3-0.7,1-0.7c0.7,0,1,0.2,1,0.7c0,0.6-0.4,0.5-1.7,0.7
	c-1.4,0.2-2,0.7-2,1.9c-0.1,0.9,0.5,1.8,1.4,1.9c0.1,0,0.2,0,0.4,0C211.5,31.6,212.2,31.3,212.7,30.6L212.7,30.6z"/>
<path class="st8" d="M215.6,23.3h1.6v8.1h-1.6V23.3z"/>
<path class="st8" d="M230.3,43.5c-2.4,0-3.8-1.6-3.8-4.3c0-2.8,1.4-4.3,3.9-4.3c2.1,0,3.3,1.1,3.4,2.9h-1.6
	c-0.1-0.9-0.9-1.5-1.7-1.4c0,0,0,0,0,0c-1.4,0-2.2,1-2.2,2.8c0,1.8,0.8,2.8,2.2,2.8c0.9,0.1,1.7-0.6,1.9-1.5h1.6
	C233.7,42.3,232.4,43.5,230.3,43.5z"/>
<path class="st8" d="M236.4,40.3c0-1.2,0.5-1.8,1.4-1.8s1.4,0.7,1.4,1.8s-0.5,1.9-1.4,1.9S236.4,41.5,236.4,40.3z M234.7,40.3
	c-0.1,1.7,1.2,3.1,2.8,3.2c1.7,0.1,3.1-1.2,3.2-2.8c0-0.1,0-0.3,0-0.4c0.1-1.7-1.2-3.1-2.8-3.2c-1.7-0.1-3.1,1.2-3.2,2.8
	C234.7,40,234.7,40.1,234.7,40.3z"/>
<path class="st8" d="M241.8,37.3h1.6V38c0.4-0.6,1.1-0.9,1.8-0.9c1.3,0,2,0.7,2,2.1v4.1h-1.6v-3.6c0-0.8-0.2-1.2-0.9-1.2
	c-0.6,0-1.2,0.4-1.2,1.1c0,0.1,0,0.1,0,0.2v3.5h-1.6L241.8,37.3z"/>
<path class="st8" d="M250.2,43.3c-1.3,0-1.6-0.4-1.6-1.7v-3.2h-0.8v-1.1h0.8v-1.6h1.6v1.6h0.9v1.1h-0.9v3.3c0,0.3,0.1,0.4,0.5,0.4
	h0.4v1.2C250.7,43.3,250.4,43.3,250.2,43.3z"/>
<path class="st8" d="M253.4,39.7c0.1-0.8,0.5-1.2,1.2-1.2c0.7,0,1.1,0.4,1.2,1.2H253.4z M255.7,41.5c-0.2,0.4-0.6,0.7-1.1,0.7
	c-0.8,0-1.2-0.5-1.2-1.4h4c0-0.1,0-0.3,0-0.4c0-2.1-1-3.2-2.8-3.2c-1.7,0-2.8,1.2-2.8,3.2c0,2,1.1,3.2,2.8,3.2
	c1.3,0.1,2.4-0.8,2.7-2L255.7,41.5z"/>
<path class="st8" d="M259.7,41.3c0,0.6,0.4,0.9,1.2,0.9c0.6,0,1-0.2,1-0.6c0-0.5-0.5-0.5-1.6-0.8c-1.4-0.4-2.1-0.8-2.1-1.8
	c0-1.2,0.9-2,2.4-2c1.6,0,2.5,0.8,2.6,2h-1.5c0-0.5-0.4-0.8-1-0.8c-0.6,0-0.9,0.2-0.9,0.6c0,0.4,0.5,0.5,1.6,0.7
	c1.4,0.3,2,0.7,2,1.8c0,1.3-1,2.1-2.8,2.1c-1.7,0-2.6-0.8-2.6-2.1v-0.1L259.7,41.3z"/>
<path class="st8" d="M266.2,43.3c-1.3,0-1.6-0.4-1.6-1.7v-3.2h-0.8v-1.1h0.8v-1.6h1.6v1.6h0.9v1.1h-0.9v3.3c0,0.3,0.1,0.4,0.5,0.4
	h0.4v1.2C266.7,43.3,266.4,43.3,266.2,43.3z"/>
<path class="st8" d="M224.6,31.6c-2.3,0-3.7-1.6-3.7-4.3c0-2.8,1.4-4.3,3.8-4.3c2,0,3.2,1.1,3.4,2.9h-1.6c-0.1-0.9-0.8-1.5-1.7-1.4
	c0,0,0,0,0,0c-1.4,0-2.2,1-2.2,2.8c0,1.8,0.8,2.8,2.1,2.8c0.9,0.1,1.7-0.6,1.8-1.5h1.6c-0.1,1.8-1.6,3.1-3.3,3
	C224.7,31.6,224.6,31.6,224.6,31.6z"/>
<path class="st8" d="M230.5,28.4c0-1.2,0.5-1.8,1.4-1.8s1.4,0.7,1.4,1.8s-0.5,1.9-1.4,1.9S230.5,29.6,230.5,28.4z M228.9,28.4
	c0,2,1.1,3.2,3,3.2s3-1.2,3-3.2s-1.1-3.2-3-3.2S228.9,26.4,228.9,28.4L228.9,28.4z"/>
<path class="st8" d="M236,23.3h1.6v8.1H236V23.3z"/>
<path class="st8" d="M239,23.3h1.6v8.1H239V23.3z"/>
<path class="st8" d="M243.3,27.8c0.1-0.8,0.5-1.2,1.1-1.2c0.7,0,1.1,0.4,1.2,1.2H243.3z M245.6,29.6c-0.2,0.4-0.6,0.7-1.1,0.7
	c-0.8,0-1.2-0.5-1.2-1.4h3.9c0-0.1,0-0.3,0-0.4c0-2.1-1-3.2-2.8-3.2c-1.7,0-2.7,1.2-2.7,3.2c0,2,1.1,3.2,2.7,3.2
	c1.3,0.1,2.4-0.8,2.7-2L245.6,29.6z"/>
<path class="st8" d="M249.5,28.3c0-1.1,0.5-1.7,1.3-1.7c0.8,0,1.3,0.6,1.3,1.7c0,1.2-0.5,1.8-1.3,1.8S249.5,29.4,249.5,28.3z
	 M248.1,32c0.1,1.2,1,1.9,2.6,1.9c0.8,0.1,1.5-0.2,2.1-0.6c0.6-0.6,0.9-1.4,0.8-2.3v-5.6h-1.5v0.7c-0.3-0.6-1-1-1.7-0.9
	c-1.5,0-2.5,1.2-2.5,3.2c0,1.8,1,3,2.5,3c0.7,0.1,1.3-0.3,1.6-0.8v0.5c0,1.1-0.3,1.5-1.3,1.5c-0.5,0-0.8-0.2-0.9-0.6L248.1,32z"/>
<path class="st8" d="M261.2,28.4V29c0.1,0.7-0.5,1.3-1.1,1.4c-0.1,0-0.1,0-0.2,0c-0.4,0-0.7-0.2-0.8-0.6c0,0,0-0.1,0-0.1
	c0-0.5,0.2-0.7,0.7-0.8C260.3,28.8,260.8,28.6,261.2,28.4z M261.3,30.6c0,0.3,0.1,0.5,0.2,0.7h1.6v-0.3c-0.3-0.1-0.3-0.4-0.3-0.8
	v-3.4c0-1.1-0.9-1.7-2.5-1.7c-1.5,0-2.4,0.8-2.4,2v0.1h1.5v-0.1c0-0.5,0.3-0.7,1-0.7c0.7,0,1,0.2,1,0.7c0,0.6-0.4,0.5-1.6,0.7
	c-1.4,0.2-2,0.7-2,1.9c-0.1,0.9,0.5,1.8,1.4,1.9c0.1,0,0.2,0,0.4,0C260.1,31.6,260.9,31.3,261.3,30.6L261.3,30.6z"/>
<path class="st8" d="M265.8,31.5c-1.3,0-1.6-0.5-1.6-1.7v-3.2h-0.8v-1.1h0.8v-1.6h1.5v1.6h0.9v1.1h-0.9v3.3c0,0.3,0.1,0.4,0.5,0.4
	h0.4v1.2C266.3,31.4,266,31.5,265.8,31.5z"/>
<path class="st8" d="M268.9,27.8c0.1-0.8,0.5-1.2,1.1-1.2c0.7,0,1.1,0.4,1.2,1.2H268.9z M271.2,29.6c-0.2,0.4-0.6,0.7-1.1,0.7
	c-0.8,0-1.2-0.5-1.2-1.4h3.9c0-0.1,0-0.3,0-0.4c0-2.1-1-3.2-2.8-3.2c-1.7,0-2.7,1.2-2.7,3.2c0,2,1.1,3.2,2.7,3.2
	c1.3,0.1,2.4-0.8,2.7-2L271.2,29.6z"/>
<path class="st8" d="M255.7,24.7c-0.5,0-0.9-0.3-0.9-0.7c0.1-0.5,0.7-0.8,1.2-0.7c0.3,0.1,0.6,0.3,0.7,0.7
	C256.7,24.4,256.3,24.7,255.7,24.7z"/>
<rect x="255" y="25.4" class="st8" width="1.6" height="6"/>
<path class="st8" d="M153.3,38.9v-2.3h1.7c0.6-0.1,1.1,0.3,1.2,0.9c0,0.1,0,0.2,0,0.3c0,0.8-0.4,1.2-1.2,1.2L153.3,38.9z
	 M153.3,40.4h2c1.3,0.1,2.4-0.8,2.5-2.1c0-0.2,0-0.3,0-0.5c0.2-1.3-0.7-2.4-2-2.6c-0.2,0-0.4,0-0.6,0h-3.6v8.1h1.7L153.3,40.4z"/>
<path class="st8" d="M159,37.3h1.5v1c0.3-0.7,0.9-1.2,1.7-1.2c0.1,0,0.2,0,0.2,0v1.6h-0.5c-0.6-0.1-1.2,0.4-1.3,1c0,0.1,0,0.2,0,0.3
	v3.2H159V37.3z"/>
<path class="st8" d="M164.6,40.3c0-1.2,0.5-1.8,1.4-1.8s1.4,0.7,1.4,1.8s-0.5,1.9-1.4,1.9S164.6,41.5,164.6,40.3z M163,40.3
	c-0.1,1.7,1.2,3.1,2.8,3.2c1.7,0.1,3.1-1.2,3.2-2.8c0-0.1,0-0.3,0-0.4c0.1-1.7-1.2-3.1-2.8-3.2c-1.7-0.1-3.1,1.2-3.2,2.8
	C163,40,163,40.1,163,40.3z"/>
<path class="st8" d="M171.4,40.2c0-1.1,0.5-1.7,1.3-1.7c0.8,0,1.3,0.6,1.3,1.7c0,1.2-0.5,1.8-1.3,1.8S171.4,41.3,171.4,40.2z
	 M169.9,43.8c0.1,1.2,1,1.9,2.6,1.9c0.8,0.1,1.5-0.2,2.2-0.6c0.6-0.6,0.9-1.4,0.8-2.3v-5.6H174V38c-0.3-0.6-1-1-1.7-0.9
	c-1.5,0-2.5,1.2-2.5,3.2c0,1.8,1,3,2.5,3c0.7,0.1,1.3-0.3,1.7-0.8V43c0,1.1-0.3,1.5-1.3,1.5c-0.5,0-0.8-0.2-0.9-0.6L169.9,43.8z"/>
<path class="st8" d="M176.9,37.3h1.5v1c0.3-0.7,0.9-1.2,1.7-1.2c0.1,0,0.2,0,0.2,0v1.6h-0.5c-0.6-0.1-1.2,0.4-1.3,1
	c0,0.1,0,0.2,0,0.3v3.2h-1.6L176.9,37.3z"/>
<path class="st8" d="M184.5,40.3v0.6c0.1,0.7-0.5,1.3-1.2,1.4c-0.1,0-0.1,0-0.2,0c-0.4,0-0.7-0.2-0.8-0.6c0,0,0-0.1,0-0.1
	c0-0.5,0.2-0.7,0.7-0.8C183.6,40.7,184.1,40.5,184.5,40.3z M184.6,42.5c0,0.3,0.1,0.5,0.2,0.7h1.7V43c-0.3-0.1-0.3-0.4-0.3-0.8v-3.4
	c0-1.1-0.9-1.7-2.6-1.7c-1.5,0-2.4,0.8-2.4,2v0.1h1.5v-0.1c0-0.5,0.3-0.7,1-0.7c0.7,0,1,0.2,1,0.7c0,0.6-0.4,0.5-1.7,0.7
	c-1.4,0.2-2,0.7-2,1.9c-0.1,0.9,0.5,1.8,1.4,1.9c0.1,0,0.2,0,0.4,0C183.4,43.5,184.2,43.2,184.6,42.5z"/>
<path class="st8" d="M187.4,37.3h1.5V38c0.4-0.5,1-0.8,1.6-0.8c0.7,0,1.3,0.3,1.7,0.9c0.4-0.6,1-0.9,1.7-0.9c1-0.1,1.9,0.7,1.9,1.7
	c0,0.1,0,0.2,0,0.3v4.2h-1.6v-3.8c0.1-0.4-0.3-0.9-0.7-0.9c-0.1,0-0.1,0-0.2,0c-0.6,0-1,0.4-1,1c0,0,0,0.1,0,0.1v3.6h-1.6v-3.8
	c0.1-0.4-0.2-0.9-0.7-0.9c-0.1,0-0.1,0-0.2,0c-0.6,0-1,0.4-1,1c0,0,0,0.1,0,0.1v3.6h-1.6L187.4,37.3z"/>
<path class="st8" d="M197.2,37.3h1.5V38c0.4-0.5,1-0.8,1.6-0.8c0.7,0,1.3,0.3,1.7,0.9c0.4-0.6,1-0.9,1.7-0.9c1-0.1,1.9,0.7,1.9,1.7
	c0,0.1,0,0.2,0,0.3v4.2h-1.6v-3.8c0.1-0.4-0.3-0.9-0.7-0.9c-0.1,0-0.1,0-0.2,0c-0.6,0-1,0.4-1,1c0,0,0,0.1,0,0.1v3.6h-1.6v-3.8
	c0.1-0.4-0.2-0.9-0.7-0.9c-0.1,0-0.1,0-0.2,0c-0.6,0-1,0.4-1,1c0,0,0,0.1,0,0.1v3.6h-1.6L197.2,37.3z"/>
<path class="st8" d="M210.1,37.3h1.6V38c0.4-0.6,1.1-0.9,1.8-0.9c1.3,0,2,0.7,2,2.1v4.1h-1.6v-3.6c0-0.8-0.2-1.2-0.9-1.2
	c-0.6,0-1.2,0.4-1.2,1.1c0,0.1,0,0.1,0,0.2v3.5h-1.6V37.3z"/>
<path class="st8" d="M218,40.2c0-1.1,0.5-1.7,1.3-1.7c0.8,0,1.3,0.6,1.3,1.7c0,1.2-0.5,1.8-1.3,1.8S218,41.3,218,40.2z M216.6,43.8
	c0.1,1.2,1,1.9,2.6,1.9c0.8,0.1,1.5-0.2,2.2-0.6c0.6-0.6,0.9-1.4,0.8-2.3v-5.6h-1.5V38c-0.3-0.6-1-1-1.7-0.9c-1.5,0-2.5,1.2-2.5,3.2
	c0,1.8,1,3,2.5,3c0.7,0.1,1.3-0.3,1.7-0.8V43c0,1.1-0.3,1.5-1.3,1.5c-0.5,0-0.8-0.2-0.9-0.6L216.6,43.8z"/>
<path class="st8" d="M207.9,36.6c-0.5,0-0.9-0.3-0.9-0.7c0.1-0.5,0.7-0.8,1.2-0.7c0.3,0.1,0.6,0.3,0.7,0.7
	C208.8,36.3,208.4,36.6,207.9,36.6z"/>
<rect x="207.1" y="37.3" class="st8" width="1.6" height="6"/>
<path class="st2" d="M72.5,25.5l-5.7,0c2.5,1.9,3.9,3.8,4.2,5.8c0.2,1.7-0.3,3.4-1.5,4.7l0,0.1c-2.2,2.8-6.6,4.9-8.4,5.6
	c-0.2,0.1-0.4,0.1-0.6,0.2h12c1.6,0,2.8-1.3,2.8-2.8V28.3C75.4,26.8,74.1,25.5,72.5,25.5z"/>
<path class="st2" d="M57.7,25.5c-1.6,0-2.8,1.3-2.8,2.8V39c0,1.6,1.3,2.8,2.8,2.8h0l0.3-0.1c7.2-2.4,11.9-6,12.1-9.5
	c0.2-3.5-4.1-6.3-4.6-6.7l-0.1-0.1L57.7,25.5z"/>
<path class="st2" d="M70.2,32.3c-0.2,3.5-4.9,7.1-12.1,9.5l-0.3,0.1h0c-1.6,0-2.8-1.3-2.8-2.8V28.3c0-1.6,1.3-2.8,2.8-2.8h7.8
	l0.1,0.1C66.1,25.9,70.4,28.8,70.2,32.3z"/>
<path class="st2" d="M71.7,12.2c0.1-0.4,0.1-0.9,0.1-1.4c0.1-2.1-1-4-2.7-5.1c-2.5-1.6-5.7-1.6-8.2-0.1c-1.8,1.2-2.9,3.3-2.8,5.5
	c0,0.5,0,1.1,0.1,1.6c0.4,2.5,1.8,4.8,3.8,6.4c-1.1-0.3-2.5-0.4-3.1,0.6c-0.3,0.4-0.2,0.9,0.1,1.2c0,0,0,0,0.1,0
	c0.8,0.6,2.7,0.4,3.9-0.2l-0.8,1.8h5.3l-1.1-2.1c1.3,0.5,2.8,1,3.6,0.5c0.3-0.2,0.5-0.6,0.5-1c0-0.4-0.1-0.8-0.5-1.1
	c-0.6-0.3-1.3-0.4-2-0.2c0.1-0.1,0.2-0.2,0.3-0.2C70.2,16.8,71.4,14.6,71.7,12.2z M59.6,20.3c-0.1-0.1-0.2-0.1,0-0.4
	c0.5-0.8,2-0.5,3.3,0C61.8,20.6,60.7,20.7,59.6,20.3z M69.8,19.4c0.2,0.1,0.2,0.3,0.2,0.5c0,0.2-0.1,0.3-0.2,0.4
	c-0.3,0.2-1.1,0.2-3.1-0.6C67.9,19.3,69.3,19,69.8,19.4L69.8,19.4z M65.8,19.3c-0.1,0-0.1,0.1-0.2,0.1l-0.2,0.1l-0.1,0.1l0,0
	l-0.4,0.2l0.6,0.3l0.9,1.9h-3.2l0.9-2.2l-0.3-0.2c-2.6-1.4-4.4-4-4.9-6.9c-0.1-0.5-0.1-1-0.1-1.5c-0.1-2,0.8-3.8,2.5-4.9
	c2.3-1.4,5.2-1.3,7.5,0.1c1.6,1,2.5,2.7,2.4,4.6c0,0.4,0,0.8-0.1,1.2C70.7,15.2,68.7,17.9,65.8,19.3L65.8,19.3z"/>
<path class="st2" d="M66.6,25.4L66.6,25.4L66.6,25.4c-1.1-0.7-1.8-1.7-2-2.9h-0.7c0.1,1.1,0.6,2.1,1.5,2.9c0,0,0,0,0.1,0h0.1l0,0
	l0.1,0.1L66.6,25.4h-0.1H66.6z"/>
<path class="st2" d="M65.5,25.4h-0.1C65.4,25.4,65.5,25.4,65.5,25.4L65.5,25.4L65.5,25.4L65.5,25.4z"/>
<polygon class="st2" points="66.6,25.4 66.5,25.4 66.6,25.4 66.7,25.4 "/>
<path class="st1" d="M38.9,26.7l3.5,0.9l-2.7,1.1l2.1,0.6l-1.5,1.2v3.3h1.3l0.4-3.1l0.1,0c2.1-0.9,3.4-2.9,3.5-5.1v-0.1h-5.4
	l-0.1,0.1L38.9,26.7z"/>
<path class="st1" d="M37.6,28.8l2.6-1.1l-2.7-0.7l1.6-1.5l0.1-0.1h-5v0.1c0.1,2.3,1.5,4.3,3.6,5.1l0.1,0l0,0.1l0.4,3h1.4v-3.6
	l0.7-0.6L37.6,28.8z"/>
<rect x="39.4" y="13.2" class="st1" width="0.7" height="5.8"/>
<rect x="31" y="19.2" transform="matrix(0.4472 -0.8945 0.8945 0.4472 -2.1877 40.0636)" class="st1" width="0.7" height="5.2"/>
<rect x="32.8" y="16.3" transform="matrix(0.6641 -0.7476 0.7476 0.6641 -3.1744 31.1772)" class="st1" width="0.7" height="5.6"/>
<polygon class="st1" points="36.9,19.7 37.5,19.4 35.3,14.4 35.3,14.3 34.7,14.6 36.8,19.6 "/>
<rect x="45.5" y="21.5" transform="matrix(0.8944 -0.4472 0.4472 0.8944 -4.6662 23.835)" class="st1" width="5.2" height="0.7"/>
<rect x="43.5" y="18.8" transform="matrix(0.7476 -0.6642 0.6642 0.7476 -0.9979 35.6177)" class="st1" width="5.6" height="0.7"/>
<rect x="40.6" y="16.7" transform="matrix(0.3971 -0.9178 0.9178 0.3971 10.563 50.0583)" class="st1" width="5.6" height="0.7"/>
<path class="st1" d="M50,39V28.3c0-1.6-1.3-2.8-2.8-2.8h-0.8l0,0.1c0,1.7-0.7,3.3-1.9,4.5c-0.5,0.5-1.1,0.9-1.8,1.1l-0.5,3.3h-4.6
	l-0.4-3.3c-3.5-1.3-3.9-5-3.9-5.7l0-0.1l-1,0c-1.6,0-2.8,1.3-2.8,2.8V39c0,1.4,1,2.6,2.4,2.8h15.7C49,41.6,50,40.5,50,39z
	 M37.7,35.3h4.6V36h-4.6V35.3z M37.7,36.6h4.6v0.7h-4.6V36.6z M40.8,39.9H39v-0.7h1.8V39.9z M42.3,38.6h-4.6v-0.7h4.6L42.3,38.6z"/>
<path class="st0" d="M9.1,39.1c-1.3-0.5-2-1.2-2-1.9c0-1.1,1.5-2.1,2-2.4C8.8,34.2,8.7,33.6,9,33c0.3-0.7,0.9-1.2,1.6-1.4
	c0.5-0.2,1-0.4,1.6-0.4c0.3,0,0.7,0.1,1,0.2c0.6,0.3,1.1,0.8,1.5,1.4c0.4-0.3,0.9-0.5,1.5-0.5c0.2,0,0.3,0,0.5,0.1
	c0.4,0.1,0.7,0.4,0.9,0.8c0.8-0.7,1.8-1.1,2.8-1.1c1.6,0.1,3.1,0.7,4.4,1.6l0,0v-5.3c0-1.6-1.3-2.8-2.8-2.8H6.9
	c-1.6,0-2.8,1.3-2.8,2.8V39c0,1.6,1.3,2.8,2.8,2.8h1.7l0,0C8.4,40.9,8.6,39.9,9.1,39.1z"/>
<path class="st0" d="M15.9,44.5c-0.8-0.2-1.6,0.4-1.7,1.2c-0.2,0.8,0.4,1.6,1.2,1.7c0.2,0,0.4,0,0.5,0c0.8,0.2,1.6-0.4,1.7-1.2
	c0.2-0.8-0.4-1.6-1.2-1.7C16.3,44.4,16.1,44.4,15.9,44.5z M15.9,46.8c-0.7,0-1.2-0.4-1.2-0.9s0.5-0.9,1.2-0.9c0.7,0,1.2,0.4,1.2,0.9
	S16.6,46.8,15.9,46.8L15.9,46.8z"/>
<path class="st0" d="M12.3,45.9c-0.7,0-1.3,0.6-1.3,1.4c0.1,0.7,0.8,1.1,1.5,1c0,0,0,0,0.1,0c0.8-0.1,1.4-0.6,1.3-1.3
	C13.7,46.3,13,45.8,12.3,45.9z M12.5,47.8c-0.4,0-0.9-0.1-1-0.5c0-0.5,0.4-0.8,0.8-0.8c0.4-0.1,0.9,0.2,1,0.6
	C13.3,47.5,12.9,47.7,12.5,47.8z"/>
<path class="st0" d="M24.6,34.7L24.6,34.7c-1.2-1.1-2.7-1.8-4.3-1.9c-0.2,0-0.5,0-0.7,0.1c-1,0.2-1.8,0.7-2.3,1.6l-0.3,0.4L17,34.3
	c-0.2-1.3-0.8-1.4-0.8-1.4c0,0-0.1,0-0.1,0c-0.7,0-1.6,0.9-1.6,0.9l-0.2,0.2l-0.1-0.3C13.6,32,12.4,32,12.3,32
	c-0.9,0-1.7,0.3-2.3,0.9c-0.5,0.6-0.4,1.5,0.2,2.1l0.2,0.2l-0.2,0.1c-2.3,1-2.2,1.9-2.2,1.9c0.1,0.6,1.4,1.2,2.3,1.5l0.2,0.1
	l-0.1,0.2c-1.3,1.8-0.9,2.7-0.8,2.9l0,0.1h12.4c1.6,0,2.8-1.3,2.8-2.8l0-0.1l-0.1,0l0.1-0.1L24.6,34.7z"/>
<path class="st0" d="M24.8,33.9C24.8,33.9,24.8,33.8,24.8,33.9L24.8,33.9l-0.1,0v0.7c0,0,0.1,0,0.1,0.1c0.6,0.4,1,1,1.2,1.7
	c0,0.9-0.4,1.7-1.2,2.2c0,0,0,0,0,0l-0.1,0.1l-0.1,0l0.1,0l0.1,0l0,0c0,0,1.2,0.5,0.6,2.3c-0.6,1.8-2.4,2.9-4.2,2.8h0
	c-1.7,0-3.4-0.5-4.8-1.4l-0.1,0l-0.1,0.1c-0.8,0.8-1.8,1.3-2.8,1.3c0,0-1.3,0.1-2.2-1.6l0-0.1l-0.1,0c0,0-1,0.3-1.5-0.2
	c0,0-0.1-0.1-0.1-0.1H9.3l0,0H8.8v0h0l0,0.1H8.7l0,0c0.1,0.3,0.6,1.1,2.1,0.9c0.5,0.9,1.5,1.5,2.6,1.6h0c1.1,0,2.2-0.5,3-1.2
	c1.4,0.8,3,1.2,4.6,1.3c0.2,0,0.4,0,0.5,0c1.9,0,3.7-1.2,4.4-3c0.5-1,0.3-2.1-0.3-2.9c0.6-0.6,1-1.4,1-2.3
	C26.5,35.3,25.8,34.4,24.8,33.9z"/>
<path class="st0" d="M8.7,41.9L8.7,41.9L8.7,41.9L8.7,41.9L8.7,41.9L8.7,41.9z"/>
<polygon class="st0" points="24.7,33.8 24.7,33.9 24.8,33.9 24.8,33.8 24.8,33.8 "/>
<path class="st0" d="M6.5,47.8c-0.8,0-0.9,0.5-0.9,0.7s0.1,0.7,0.9,0.7c0.6,0,1-0.3,1-0.7S7.1,47.8,6.5,47.8z M6.5,48.9
	c-0.5,0-0.5-0.2-0.5-0.3s0-0.3,0.5-0.3c0.1,0,0.6,0,0.6,0.3S6.6,48.9,6.5,48.9L6.5,48.9z"/>
<path class="st0" d="M9.3,47C8.5,47,8,47.4,8,48s0.5,0.9,1.2,0.9s1.2-0.4,1.2-0.9S10,47,9.3,47z M9.3,48.4c-0.3,0-0.8-0.1-0.8-0.4
	s0.4-0.4,0.8-0.4S10,47.6,10,48S9.6,48.4,9.3,48.4z"/>
<path class="st0" d="M30.6,46.5c-0.3,0-0.5-0.2-0.5-0.4c0.1-0.3,0.4-0.5,0.7-0.4c0.2,0,0.3,0.2,0.4,0.4
	C31.1,46.4,30.9,46.5,30.6,46.5z"/>
<path class="st0" d="M30.2,47.1h0.6v3.5h-0.6V47.1z"/>
<path class="st0" d="M34.1,47.3c0.3,0.2,0.5,0.6,0.5,1H34c0-0.2-0.1-0.4-0.3-0.5c-0.2-0.2-0.4-0.2-0.6-0.2c-0.4,0-0.7,0.2-0.8,0.5
	c-0.1,0.3-0.2,0.6-0.2,0.9c0,0.3,0.1,0.6,0.2,0.9c0.2,0.2,0.4,0.4,0.7,0.4c0.2,0,0.4-0.1,0.6-0.2c0.2-0.2,0.3-0.4,0.3-0.6h0.6
	c0,0.4-0.2,0.8-0.5,1c-0.3,0.2-0.7,0.3-1.1,0.3c-0.4,0-0.9-0.2-1.2-0.5c-0.3-0.4-0.4-0.8-0.4-1.3c0-0.5,0.1-1,0.5-1.4
	c0.3-0.3,0.7-0.5,1.2-0.5C33.5,47,33.8,47.1,34.1,47.3z"/>
<path class="st0" d="M35.2,47.1h0.6v0.5c0.1-0.1,0.3-0.3,0.4-0.4c0.2-0.1,0.5-0.2,0.7-0.2c0.4,0,0.8,0.2,1.1,0.5
	c0.3,0.4,0.5,0.8,0.4,1.3c0.1,0.6-0.2,1.2-0.6,1.6c-0.3,0.2-0.6,0.3-0.9,0.3c-0.2,0-0.5-0.1-0.7-0.2c-0.1-0.1-0.3-0.2-0.4-0.3V52
	h-0.6L35.2,47.1z M37.5,49.9c0.2-0.3,0.3-0.7,0.3-1c0-0.2,0-0.5-0.1-0.7c-0.2-0.5-0.8-0.7-1.3-0.5c-0.2,0.1-0.4,0.3-0.5,0.5
	c-0.1,0.3-0.1,0.5-0.1,0.8c0,0.2,0,0.5,0.1,0.7c0.1,0.4,0.5,0.6,0.9,0.5C37,50.2,37.3,50.1,37.5,49.9z"/>
<path class="st0" d="M41.6,47.3c0.3,0.2,0.5,0.6,0.5,1h-0.6c0-0.2-0.1-0.4-0.3-0.5c-0.2-0.2-0.4-0.2-0.6-0.2c-0.4,0-0.7,0.2-0.8,0.5
	c-0.1,0.3-0.2,0.6-0.2,0.9c0,0.3,0.1,0.6,0.2,0.9c0.2,0.2,0.4,0.4,0.7,0.4c0.2,0,0.4-0.1,0.6-0.2c0.2-0.2,0.3-0.4,0.3-0.6h0.6
	c0,0.4-0.2,0.8-0.5,1c-0.3,0.2-0.7,0.3-1.1,0.3c-0.4,0-0.9-0.2-1.2-0.5c-0.3-0.4-0.4-0.8-0.4-1.3c0-0.5,0.1-1,0.5-1.4
	c0.3-0.3,0.7-0.5,1.2-0.5C40.9,47,41.3,47.1,41.6,47.3z"/>
<path class="st0" d="M43.1,50.6c-0.3,0-0.5-0.2-0.5-0.4c0.1-0.3,0.4-0.5,0.7-0.4c0.2,0,0.3,0.2,0.4,0.4
	C43.6,50.5,43.4,50.6,43.1,50.6z"/>
<path class="st0" d="M67.5,46.5c-0.3,0-0.5-0.2-0.5-0.4c0.1-0.3,0.4-0.5,0.7-0.4c0.2,0,0.3,0.2,0.4,0.4C68,46.3,67.8,46.5,67.5,46.5
	z"/>
<path class="st0" d="M67.1,47.1h0.6v3.5h-0.6V47.1z"/>
<path class="st0" d="M44.6,46c0.2-0.2,0.5-0.3,0.8-0.3c0,0,0.1,0,0.1,0c0,0,0.1,0,0.1,0v0.5c-0.1,0-0.1,0-0.1,0c0,0-0.1,0-0.1,0
	c-0.2,0-0.3,0-0.3,0.1c0,0.2-0.1,0.5-0.1,0.7h0.6v0.5h-0.6v3h-0.6v-3H44v-0.5h0.5v-0.6C44.5,46.4,44.5,46.2,44.6,46z"/>
<path class="st0" d="M48.8,47.4c0.3,0.4,0.5,0.8,0.5,1.3c0,0.5-0.1,1-0.4,1.4c-0.3,0.4-0.8,0.6-1.3,0.6c-0.4,0-0.9-0.2-1.2-0.5
	c-0.3-0.4-0.5-0.8-0.4-1.3c0-0.5,0.1-1,0.5-1.4c0.3-0.4,0.8-0.5,1.2-0.5C48.1,47,48.5,47.1,48.8,47.4z M48.4,49.8
	c0.1-0.3,0.2-0.6,0.2-1c0-0.3,0-0.5-0.2-0.8c-0.2-0.3-0.5-0.5-0.9-0.5c-0.3,0-0.6,0.1-0.8,0.4c-0.2,0.3-0.3,0.6-0.2,1
	c0,0.3,0.1,0.7,0.2,0.9c0.2,0.3,0.5,0.4,0.8,0.4C48,50.3,48.3,50.1,48.4,49.8z"/>
<path class="st0" d="M50.6,47.1v2.3c0,0.2,0,0.3,0.1,0.4c0.1,0.2,0.3,0.3,0.6,0.3c0.4,0,0.7-0.2,0.8-0.6c0.1-0.3,0.1-0.5,0.1-0.8
	v-1.7h0.6v3.5h-0.6l0-0.5c-0.1,0.1-0.2,0.2-0.3,0.3c-0.2,0.2-0.5,0.3-0.8,0.3c-0.4,0-0.8-0.1-1-0.5C50.1,50,50,49.7,50,49.5v-2.4
	H50.6z"/>
<path class="st0" d="M53.8,47.1h0.6v0.5c0.1-0.2,0.3-0.3,0.5-0.4c0.2-0.1,0.4-0.1,0.6-0.1c0.4,0,0.8,0.2,1,0.5
	c0.1,0.3,0.2,0.5,0.1,0.8v2.3h-0.6v-2.2c0-0.2,0-0.4-0.1-0.5c-0.1-0.2-0.3-0.3-0.6-0.3c-0.1,0-0.2,0-0.4,0c-0.2,0.1-0.3,0.2-0.4,0.3
	c-0.1,0.1-0.2,0.2-0.2,0.4c0,0.2-0.1,0.4,0,0.5v1.8h-0.6L53.8,47.1z"/>
<path class="st0" d="M59.6,47.2c0.1,0.1,0.3,0.2,0.4,0.3v-1.8h0.6v4.8H60v-0.5c-0.1,0.2-0.3,0.4-0.5,0.5c-0.2,0.1-0.4,0.1-0.7,0.1
	c-0.4,0-0.8-0.2-1-0.5c-0.3-0.4-0.5-0.8-0.4-1.3c0-0.5,0.1-0.9,0.4-1.3c0.3-0.4,0.7-0.6,1.1-0.6C59.2,47,59.4,47.1,59.6,47.2z
	 M58.3,49.8c0.2,0.3,0.5,0.4,0.8,0.4c0.3,0,0.5-0.1,0.7-0.4c0.2-0.3,0.3-0.7,0.3-1c0-0.4-0.1-0.7-0.3-1c-0.2-0.2-0.4-0.3-0.7-0.3
	c-0.3,0-0.6,0.1-0.7,0.3c-0.2,0.3-0.3,0.6-0.3,1C58,49.2,58.1,49.6,58.3,49.8z"/>
<path class="st0" d="M63.4,48.5c0.1,0,0.2-0.1,0.3-0.2c0-0.1,0-0.1,0-0.2c0-0.2-0.1-0.3-0.2-0.4c-0.2-0.1-0.4-0.1-0.6-0.1
	c-0.2,0-0.5,0.1-0.7,0.3c-0.1,0.1-0.1,0.3-0.1,0.4h-0.6c0-0.4,0.1-0.7,0.4-0.9c0.3-0.2,0.6-0.3,1-0.3c0.4,0,0.7,0.1,1,0.2
	c0.3,0.2,0.4,0.4,0.4,0.7v2c0,0.1,0,0.1,0,0.1c0,0,0.1,0.1,0.2,0.1c0,0,0.1,0,0.1,0s0.1,0,0.1,0v0.4c-0.1,0-0.1,0-0.2,0
	c-0.1,0-0.1,0-0.2,0c-0.2,0-0.4-0.1-0.5-0.2c-0.1-0.1-0.1-0.2-0.1-0.3c-0.1,0.2-0.3,0.3-0.5,0.4c-0.2,0.1-0.5,0.2-0.8,0.2
	c-0.3,0-0.6-0.1-0.8-0.3c-0.2-0.2-0.3-0.5-0.3-0.7c0-0.3,0.1-0.6,0.3-0.8c0.2-0.2,0.5-0.3,0.8-0.3L63.4,48.5z M62.1,50.1
	c0.1,0.1,0.3,0.2,0.5,0.1c0.2,0,0.4,0,0.6-0.1c0.3-0.1,0.5-0.4,0.5-0.8v-0.5c-0.1,0.1-0.2,0.1-0.3,0.1c-0.1,0-0.2,0.1-0.3,0.1
	l-0.4,0c-0.2,0-0.3,0.1-0.5,0.1c-0.2,0.1-0.3,0.3-0.3,0.5C61.9,49.8,62,50,62.1,50.1z"/>
<path class="st0" d="M65.3,46.1H66v1h0.6v0.5H66v2.3c0,0.1,0,0.2,0.1,0.2c0.1,0,0.2,0,0.2,0c0,0,0.1,0,0.1,0s0.1,0,0.1,0v0.5
	c-0.1,0-0.1,0-0.2,0c-0.1,0-0.2,0-0.2,0c-0.2,0-0.4-0.1-0.6-0.2c-0.1-0.2-0.2-0.4-0.2-0.5v-2.3h-0.5v-0.5h0.5L65.3,46.1z"/>
<path class="st0" d="M71.3,47.4c0.3,0.4,0.5,0.8,0.5,1.3c0,0.5-0.1,1-0.4,1.4c-0.3,0.4-0.8,0.6-1.3,0.6c-0.4,0-0.9-0.2-1.2-0.5
	c-0.3-0.4-0.5-0.8-0.4-1.3c0-0.5,0.1-1,0.5-1.4c0.3-0.4,0.8-0.5,1.2-0.5C70.6,47,71,47.1,71.3,47.4z M70.9,49.8
	c0.1-0.3,0.2-0.6,0.2-1c0-0.3,0-0.5-0.2-0.8c-0.2-0.3-0.5-0.5-0.9-0.5c-0.3,0-0.6,0.1-0.8,0.4c-0.2,0.3-0.3,0.6-0.2,1
	c0,0.3,0.1,0.7,0.2,0.9c0.2,0.3,0.5,0.4,0.8,0.4C70.5,50.3,70.8,50.1,70.9,49.8z"/>
<path class="st0" d="M72.5,47.1h0.6v0.5c0.1-0.2,0.3-0.3,0.5-0.4c0.2-0.1,0.4-0.1,0.6-0.1c0.4,0,0.8,0.2,1,0.5
	c0.1,0.3,0.2,0.5,0.1,0.8v2.3h-0.6v-2.2c0-0.2,0-0.4-0.1-0.5c-0.1-0.2-0.3-0.3-0.6-0.3c-0.1,0-0.2,0-0.4,0c-0.2,0.1-0.3,0.2-0.4,0.3
	c-0.1,0.1-0.2,0.2-0.2,0.4c0,0.2-0.1,0.4,0,0.5v1.8h-0.6V47.1z"/>
<rect class="st9" width="504" height="108"/>
<g>
	<path class="st7" d="M122.4,67.4v-0.6l0.8-0.8c2-1.9,2.9-2.9,2.9-4.1c0-0.8-0.4-1.5-1.5-1.5c-0.7,0-1.3,0.4-1.7,0.7l-0.3-0.7
		c0.5-0.5,1.3-0.8,2.2-0.8c1.7,0,2.4,1.2,2.4,2.3c0,1.4-1,2.6-2.7,4.2l-0.6,0.6v0h3.5v0.9H122.4z"/>
	<path class="st7" d="M133.7,63.4c0,2.7-1,4.1-2.7,4.1c-1.5,0-2.6-1.4-2.6-4c0-2.6,1.1-4.1,2.7-4.1
		C132.8,59.4,133.7,60.9,133.7,63.4z M129.5,63.5c0,2,0.6,3.2,1.6,3.2c1.1,0,1.6-1.3,1.6-3.2c0-1.9-0.5-3.2-1.6-3.2
		C130.2,60.3,129.5,61.4,129.5,63.5z"/>
	<path class="st7" d="M137,60.6L137,60.6l-1.4,0.7l-0.2-0.8l1.7-0.9h0.9v7.8h-1V60.6z"/>
	<path class="st7" d="M140.8,65.4c0-1,0.6-1.7,1.5-2.1l0,0c-0.9-0.4-1.2-1.1-1.2-1.8c0-1.2,1-2.1,2.4-2.1c1.5,0,2.3,0.9,2.3,1.9
		c0,0.7-0.3,1.4-1.3,1.8v0c1,0.4,1.6,1.1,1.6,2c0,1.4-1.2,2.3-2.7,2.3C141.7,67.5,140.8,66.5,140.8,65.4z M145,65.3
		c0-0.9-0.7-1.4-1.7-1.7c-0.9,0.3-1.4,0.9-1.4,1.6c0,0.8,0.6,1.5,1.6,1.5C144.3,66.7,145,66.1,145,65.3z M142.1,61.4
		c0,0.8,0.6,1.2,1.5,1.4c0.7-0.2,1.2-0.7,1.2-1.4c0-0.6-0.4-1.3-1.3-1.3C142.5,60.2,142.1,60.8,142.1,61.4z"/>
	<path class="st7" d="M151,59.3v8.1h-1v-8.1H151z"/>
	<path class="st7" d="M158.4,67.1c-0.4,0.2-1.2,0.4-2.1,0.4c-2.3,0-4-1.4-4-4.1c0-2.5,1.7-4.2,4.2-4.2c1,0,1.6,0.2,1.9,0.4l-0.3,0.9
		c-0.4-0.2-1-0.3-1.6-0.3c-1.9,0-3.2,1.2-3.2,3.3c0,2,1.1,3.2,3.1,3.2c0.6,0,1.3-0.1,1.7-0.3L158.4,67.1z"/>
	<path class="st7" d="M159.8,59.4c0.5-0.1,1.2-0.2,2-0.2c1,0,1.8,0.2,2.3,0.7c0.4,0.4,0.7,1,0.7,1.7c0,0.7-0.2,1.3-0.6,1.7
		c-0.6,0.6-1.5,0.9-2.5,0.9c-0.3,0-0.6,0-0.8-0.1v3.2h-1V59.4z M160.8,63.3c0.2,0.1,0.5,0.1,0.9,0.1c1.3,0,2-0.6,2-1.7
		c0-1.1-0.8-1.6-1.9-1.6c-0.5,0-0.8,0-1,0.1V63.3z"/>
	<path class="st7" d="M171.8,67.1c-0.4,0.2-1.2,0.4-2.1,0.4c-2.3,0-4-1.4-4-4.1c0-2.5,1.7-4.2,4.2-4.2c1,0,1.6,0.2,1.9,0.4l-0.3,0.9
		c-0.4-0.2-1-0.3-1.6-0.3c-1.9,0-3.2,1.2-3.2,3.3c0,2,1.1,3.2,3.1,3.2c0.6,0,1.3-0.1,1.7-0.3L171.8,67.1z"/>
	<path class="st7" d="M175.6,67.4v-8.1h1.1l2.6,4.1c0.6,0.9,1.1,1.8,1.5,2.6l0,0c-0.1-1.1-0.1-2.1-0.1-3.3v-3.4h1v8.1h-1.1l-2.6-4.1
		c-0.6-0.9-1.1-1.8-1.5-2.7l0,0c0.1,1,0.1,2,0.1,3.3v3.5H175.6z"/>
	<path class="st7" d="M188.8,64.4c0,2.1-1.5,3.1-2.9,3.1c-1.6,0-2.8-1.2-2.8-3c0-1.9,1.3-3.1,2.9-3.1
		C187.6,61.4,188.8,62.6,188.8,64.4z M184.2,64.5c0,1.3,0.7,2.2,1.8,2.2c1,0,1.8-0.9,1.8-2.3c0-1-0.5-2.2-1.7-2.2
		C184.7,62.2,184.2,63.4,184.2,64.5z"/>
	<path class="st7" d="M190.1,63.4c0-0.7,0-1.3,0-1.8h0.9l0,1.1h0c0.3-0.8,0.9-1.3,1.6-1.3c0.1,0,0.2,0,0.3,0v1c-0.1,0-0.2,0-0.4,0
		c-0.7,0-1.3,0.6-1.4,1.4c0,0.1,0,0.3,0,0.5v3.1h-1V63.4z"/>
	<path class="st7" d="M195.6,59.9v1.7h1.5v0.8h-1.5v3.1c0,0.7,0.2,1.1,0.8,1.1c0.3,0,0.5,0,0.6-0.1l0,0.8c-0.2,0.1-0.5,0.1-0.9,0.1
		c-0.5,0-0.9-0.2-1.1-0.4c-0.3-0.3-0.4-0.8-0.4-1.5v-3.2h-0.9v-0.8h0.9v-1.4L195.6,59.9z"/>
	<path class="st7" d="M198.3,58.8h1.1v3.6h0c0.2-0.3,0.4-0.6,0.8-0.7c0.3-0.2,0.7-0.3,1.1-0.3c0.8,0,2,0.5,2,2.5v3.5h-1.1V64
		c0-0.9-0.3-1.7-1.3-1.7c-0.7,0-1.2,0.5-1.4,1.1c-0.1,0.1-0.1,0.3-0.1,0.5v3.5h-1.1V58.8z"/>
	<path class="st7" d="M205.2,61.6l0.8,3c0.2,0.6,0.3,1.2,0.4,1.8h0c0.1-0.6,0.3-1.2,0.5-1.8l0.9-3h0.9l0.9,2.9
		c0.2,0.7,0.4,1.3,0.5,1.9h0c0.1-0.6,0.3-1.2,0.4-1.9l0.8-2.9h1l-1.9,5.8h-1l-0.9-2.8c-0.2-0.6-0.4-1.2-0.5-1.9h0
		c-0.1,0.7-0.3,1.3-0.5,1.9l-0.9,2.8h-1l-1.8-5.8H205.2z"/>
	<path class="st7" d="M214.1,64.7c0,1.4,0.9,2,2,2c0.8,0,1.2-0.1,1.6-0.3l0.2,0.8c-0.4,0.2-1,0.4-1.9,0.4c-1.8,0-2.9-1.2-2.9-2.9
		s1-3.1,2.7-3.1c1.9,0,2.4,1.7,2.4,2.7c0,0.2,0,0.4,0,0.5H214.1z M217.2,63.9c0-0.7-0.3-1.7-1.5-1.7c-1.1,0-1.5,1-1.6,1.7H217.2z"/>
	<path class="st7" d="M219.4,66.3c0.3,0.2,0.9,0.4,1.4,0.4c0.8,0,1.1-0.4,1.1-0.9c0-0.5-0.3-0.8-1.1-1.1c-1-0.4-1.5-0.9-1.5-1.6
		c0-0.9,0.8-1.7,2-1.7c0.6,0,1.1,0.2,1.4,0.4l-0.3,0.8c-0.2-0.1-0.6-0.3-1.2-0.3c-0.6,0-1,0.4-1,0.8c0,0.5,0.3,0.7,1.1,1
		c1,0.4,1.5,0.9,1.5,1.8c0,1-0.8,1.7-2.2,1.7c-0.6,0-1.2-0.2-1.6-0.4L219.4,66.3z"/>
	<path class="st7" d="M225.5,59.9v1.7h1.5v0.8h-1.5v3.1c0,0.7,0.2,1.1,0.8,1.1c0.3,0,0.5,0,0.6-0.1l0,0.8c-0.2,0.1-0.5,0.1-0.9,0.1
		c-0.5,0-0.9-0.2-1.1-0.4c-0.3-0.3-0.4-0.8-0.4-1.5v-3.2h-0.9v-0.8h0.9v-1.4L225.5,59.9z"/>
	<path class="st7" d="M228.7,64.7c0,1.4,0.9,2,2,2c0.8,0,1.2-0.1,1.6-0.3l0.2,0.8c-0.4,0.2-1,0.4-1.9,0.4c-1.8,0-2.9-1.2-2.9-2.9
		s1-3.1,2.7-3.1c1.9,0,2.4,1.7,2.4,2.7c0,0.2,0,0.4,0,0.5H228.7z M231.8,63.9c0-0.7-0.3-1.7-1.5-1.7c-1.1,0-1.5,1-1.6,1.7H231.8z"/>
	<path class="st7" d="M234.2,63.4c0-0.7,0-1.3,0-1.8h0.9l0,1.1h0c0.3-0.8,0.9-1.3,1.6-1.3c0.1,0,0.2,0,0.3,0v1c-0.1,0-0.2,0-0.4,0
		c-0.7,0-1.3,0.6-1.4,1.4c0,0.1,0,0.3,0,0.5v3.1h-1V63.4z"/>
	<path class="st7" d="M238.1,63.1c0-0.6,0-1.1,0-1.6h0.9l0.1,1h0c0.3-0.6,1-1.1,1.9-1.1c0.8,0,2.1,0.5,2.1,2.5v3.5H242V64
		c0-0.9-0.3-1.7-1.3-1.7c-0.7,0-1.2,0.5-1.4,1.1c0,0.1-0.1,0.3-0.1,0.5v3.5h-1.1V63.1z"/>
	<path class="st7" d="M251.6,63.6h-3.1v2.9h3.5v0.9h-4.5v-8.1h4.4v0.9h-3.3v2.6h3.1V63.6z"/>
	<path class="st7" d="M258,65.8c0,0.6,0,1.1,0,1.6h-0.9l-0.1-0.9h0c-0.3,0.5-0.9,1.1-1.9,1.1c-0.9,0-2-0.5-2-2.5v-3.4h1.1v3.2
		c0,1.1,0.3,1.8,1.3,1.8c0.7,0,1.2-0.5,1.4-1c0.1-0.2,0.1-0.3,0.1-0.5v-3.6h1.1V65.8z"/>
	<path class="st7" d="M259.8,63.4c0-0.7,0-1.3,0-1.8h0.9l0,1.1h0c0.3-0.8,0.9-1.3,1.6-1.3c0.1,0,0.2,0,0.3,0v1c-0.1,0-0.2,0-0.4,0
		c-0.7,0-1.3,0.6-1.4,1.4c0,0.1,0,0.3,0,0.5v3.1h-1V63.4z"/>
	<path class="st7" d="M268.8,64.4c0,2.1-1.5,3.1-2.9,3.1c-1.6,0-2.8-1.2-2.8-3c0-1.9,1.3-3.1,2.9-3.1
		C267.7,61.4,268.8,62.6,268.8,64.4z M264.2,64.5c0,1.3,0.7,2.2,1.8,2.2c1,0,1.8-0.9,1.8-2.3c0-1-0.5-2.2-1.7-2.2
		S264.2,63.4,264.2,64.5z"/>
	<path class="st7" d="M270.2,63.5c0-0.7,0-1.3,0-1.9h0.9l0,1h0c0.4-0.7,1.1-1.1,2.1-1.1c1.4,0,2.5,1.2,2.5,3c0,2.1-1.3,3.1-2.6,3.1
		c-0.8,0-1.4-0.3-1.8-0.9h0v3.2h-1V63.5z M271.2,65c0,0.2,0,0.3,0,0.4c0.2,0.7,0.8,1.2,1.6,1.2c1.1,0,1.8-0.9,1.8-2.2
		c0-1.2-0.6-2.2-1.7-2.2c-0.7,0-1.4,0.5-1.6,1.3c0,0.1-0.1,0.3-0.1,0.4V65z"/>
	<path class="st7" d="M277.6,64.7c0,1.4,0.9,2,2,2c0.8,0,1.2-0.1,1.6-0.3l0.2,0.8c-0.4,0.2-1,0.4-1.9,0.4c-1.8,0-2.9-1.2-2.9-2.9
		s1-3.1,2.7-3.1c1.9,0,2.4,1.7,2.4,2.7c0,0.2,0,0.4,0,0.5H277.6z M280.7,63.9c0-0.7-0.3-1.7-1.5-1.7c-1.1,0-1.5,1-1.6,1.7H280.7z"/>
	<path class="st7" d="M286.2,67.4l-0.1-0.7h0c-0.3,0.5-0.9,0.9-1.8,0.9c-1.2,0-1.8-0.8-1.8-1.7c0-1.4,1.2-2.2,3.5-2.2v-0.1
		c0-0.5-0.1-1.3-1.3-1.3c-0.5,0-1.1,0.2-1.5,0.4l-0.2-0.7c0.5-0.3,1.2-0.5,1.9-0.5c1.8,0,2.2,1.2,2.2,2.4V66c0,0.5,0,1,0.1,1.4
		H286.2z M286.1,64.4c-1.2,0-2.5,0.2-2.5,1.3c0,0.7,0.5,1,1,1c0.8,0,1.2-0.5,1.4-1c0-0.1,0.1-0.2,0.1-0.3V64.4z"/>
	<path class="st7" d="M288.8,63.1c0-0.6,0-1.1,0-1.6h0.9l0.1,1h0c0.3-0.6,1-1.1,1.9-1.1c0.8,0,2.1,0.5,2.1,2.5v3.5h-1.1V64
		c0-0.9-0.3-1.7-1.3-1.7c-0.7,0-1.2,0.5-1.4,1.1c0,0.1-0.1,0.3-0.1,0.5v3.5h-1.1V63.1z"/>
	<path class="st7" d="M298,59.4c0.5-0.1,1.3-0.2,2-0.2c1.1,0,1.8,0.2,2.3,0.7c0.4,0.4,0.6,0.9,0.6,1.5c0,1.1-0.7,1.8-1.5,2.1v0
		c0.6,0.2,1,0.8,1.2,1.6c0.3,1.1,0.5,1.9,0.6,2.2h-1.1c-0.1-0.2-0.3-0.9-0.5-1.9c-0.2-1.1-0.7-1.5-1.6-1.6h-1v3.5h-1V59.4z
		 M299.1,63.1h1.1c1.1,0,1.8-0.6,1.8-1.5c0-1-0.8-1.5-1.9-1.5c-0.5,0-0.9,0-1,0.1V63.1z"/>
	<path class="st7" d="M305.1,64.7c0,1.4,0.9,2,2,2c0.8,0,1.2-0.1,1.6-0.3l0.2,0.8c-0.4,0.2-1,0.4-1.9,0.4c-1.8,0-2.9-1.2-2.9-2.9
		s1-3.1,2.7-3.1c1.9,0,2.4,1.7,2.4,2.7c0,0.2,0,0.4,0,0.5H305.1z M308.2,63.9c0-0.7-0.3-1.7-1.5-1.7c-1.1,0-1.5,1-1.6,1.7H308.2z"/>
	<path class="st7" d="M315.5,61.6c0,0.4,0,0.9,0,1.6v3.4c0,1.3-0.3,2.1-0.8,2.7c-0.6,0.5-1.4,0.7-2.1,0.7c-0.7,0-1.5-0.2-1.9-0.5
		l0.3-0.8c0.4,0.2,1,0.5,1.7,0.5c1.1,0,1.9-0.6,1.9-2v-0.6h0c-0.3,0.5-0.9,1-1.8,1c-1.4,0-2.5-1.2-2.5-2.8c0-2,1.3-3.1,2.6-3.1
		c1,0,1.6,0.5,1.8,1h0l0-0.9H315.5z M314.4,63.8c0-0.2,0-0.3-0.1-0.5c-0.2-0.6-0.7-1.1-1.5-1.1c-1,0-1.7,0.9-1.7,2.2
		c0,1.1,0.6,2.1,1.7,2.1c0.6,0,1.2-0.4,1.5-1.1c0.1-0.2,0.1-0.4,0.1-0.6V63.8z"/>
	<path class="st7" d="M318.3,59.9c0,0.4-0.3,0.6-0.7,0.6c-0.4,0-0.6-0.3-0.6-0.6c0-0.4,0.3-0.7,0.7-0.7
		C318.1,59.3,318.3,59.6,318.3,59.9z M317.1,67.4v-5.8h1.1v5.8H317.1z"/>
	<path class="st7" d="M325.2,64.4c0,2.1-1.5,3.1-2.9,3.1c-1.6,0-2.8-1.2-2.8-3c0-1.9,1.3-3.1,2.9-3.1
		C324.1,61.4,325.2,62.6,325.2,64.4z M320.6,64.5c0,1.3,0.7,2.2,1.8,2.2c1,0,1.8-0.9,1.8-2.3c0-1-0.5-2.2-1.7-2.2
		S320.6,63.4,320.6,64.5z"/>
	<path class="st7" d="M326.5,63.1c0-0.6,0-1.1,0-1.6h0.9l0.1,1h0c0.3-0.6,1-1.1,1.9-1.1c0.8,0,2.1,0.5,2.1,2.5v3.5h-1.1V64
		c0-0.9-0.3-1.7-1.3-1.7c-0.7,0-1.2,0.5-1.4,1.1c0,0.1-0.1,0.3-0.1,0.5v3.5h-1.1V63.1z"/>
	<path class="st7" d="M336.4,67.4l-0.1-0.7h0c-0.3,0.5-0.9,0.9-1.8,0.9c-1.2,0-1.8-0.8-1.8-1.7c0-1.4,1.2-2.2,3.5-2.2v-0.1
		c0-0.5-0.1-1.3-1.3-1.3c-0.5,0-1.1,0.2-1.5,0.4l-0.2-0.7c0.5-0.3,1.2-0.5,1.9-0.5c1.8,0,2.2,1.2,2.2,2.4V66c0,0.5,0,1,0.1,1.4
		H336.4z M336.3,64.4c-1.2,0-2.5,0.2-2.5,1.3c0,0.7,0.5,1,1,1c0.8,0,1.2-0.5,1.4-1c0-0.1,0.1-0.2,0.1-0.3V64.4z"/>
	<path class="st7" d="M339,58.8h1.1v8.5H339V58.8z"/>
	<path class="st7" d="M350,67.1c-0.4,0.2-1.2,0.4-2.1,0.4c-2.3,0-4-1.4-4-4.1c0-2.5,1.7-4.2,4.2-4.2c1,0,1.6,0.2,1.9,0.4l-0.3,0.9
		c-0.4-0.2-1-0.3-1.6-0.3c-1.9,0-3.2,1.2-3.2,3.3c0,2,1.1,3.2,3.1,3.2c0.6,0,1.3-0.1,1.7-0.3L350,67.1z"/>
	<path class="st7" d="M356.4,64.4c0,2.1-1.5,3.1-2.9,3.1c-1.6,0-2.8-1.2-2.8-3c0-1.9,1.3-3.1,2.9-3.1
		C355.3,61.4,356.4,62.6,356.4,64.4z M351.8,64.5c0,1.3,0.7,2.2,1.8,2.2c1,0,1.8-0.9,1.8-2.3c0-1-0.5-2.2-1.7-2.2
		S351.8,63.4,351.8,64.5z"/>
	<path class="st7" d="M357.8,63.1c0-0.6,0-1.1,0-1.6h0.9l0.1,1h0c0.3-0.6,1-1.1,1.9-1.1c0.8,0,2.1,0.5,2.1,2.5v3.5h-1.1V64
		c0-0.9-0.3-1.7-1.3-1.7c-0.7,0-1.2,0.5-1.4,1.1c0,0.1-0.1,0.3-0.1,0.5v3.5h-1.1V63.1z"/>
	<path class="st7" d="M365.7,59.9v1.7h1.5v0.8h-1.5v3.1c0,0.7,0.2,1.1,0.8,1.1c0.3,0,0.5,0,0.6-0.1l0,0.8c-0.2,0.1-0.5,0.1-0.9,0.1
		c-0.5,0-0.9-0.2-1.1-0.4c-0.3-0.3-0.4-0.8-0.4-1.5v-3.2h-0.9v-0.8h0.9v-1.4L365.7,59.9z"/>
	<path class="st7" d="M368.9,64.7c0,1.4,0.9,2,2,2c0.8,0,1.2-0.1,1.6-0.3l0.2,0.8c-0.4,0.2-1,0.4-1.9,0.4c-1.8,0-2.9-1.2-2.9-2.9
		s1-3.1,2.7-3.1c1.9,0,2.4,1.7,2.4,2.7c0,0.2,0,0.4,0,0.5H368.9z M372,63.9c0-0.7-0.3-1.7-1.5-1.7c-1.1,0-1.5,1-1.6,1.7H372z"/>
	<path class="st7" d="M374.2,66.3c0.3,0.2,0.9,0.4,1.4,0.4c0.8,0,1.1-0.4,1.1-0.9c0-0.5-0.3-0.8-1.1-1.1c-1-0.4-1.5-0.9-1.5-1.6
		c0-0.9,0.8-1.7,2-1.7c0.6,0,1.1,0.2,1.4,0.4l-0.3,0.8c-0.2-0.1-0.6-0.3-1.2-0.3c-0.6,0-1,0.4-1,0.8c0,0.5,0.3,0.7,1.1,1
		c1,0.4,1.5,0.9,1.5,1.8c0,1-0.8,1.7-2.2,1.7c-0.6,0-1.2-0.2-1.6-0.4L374.2,66.3z"/>
	<path class="st7" d="M380.3,59.9v1.7h1.5v0.8h-1.5v3.1c0,0.7,0.2,1.1,0.8,1.1c0.3,0,0.5,0,0.6-0.1l0,0.8c-0.2,0.1-0.5,0.1-0.9,0.1
		c-0.5,0-0.9-0.2-1.1-0.4c-0.3-0.3-0.4-0.8-0.4-1.5v-3.2h-0.9v-0.8h0.9v-1.4L380.3,59.9z"/>
</g>
</svg>
