<svg id="Layer_1" data-name="Layer 1" xmlns="http://www.w3.org/2000/svg" viewBox="0 0 157.32 254.82"><defs><style>.cls-1{fill:#070916;}.cls-2{fill:#fcc351;}</style></defs><title>logo</title><g id="layer1"><path class="cls-1" d="M111.5,277.5c-1.4-1.3-2.5-3.1-2.5-4a1.69,1.69,0,0,0-1.8-1.5c-2.4,0-6.2-2.8-6.2-4.6,0-1.2,3.6-1.4,22.5-1.4s22.5.2,22.5,1.4c0,1.8-3.8,4.6-6.2,4.6a1.62,1.62,0,0,0-1.8,1.4,9.56,9.56,0,0,1-2.1,4c-2,2.5-2.4,2.6-12,2.6C114.6,280,113.7,279.8,111.5,277.5Z" transform="translate(-46.09 -25.18)"/><path class="cls-1" d="M91.9,259.1c-3.5-3.6-3.6-5.1-.5-8.8l2.4-2.8,26.4-.3c14.4-.2,28.1.1,30.2.5,5,1.1,8,4.8,7,8.7-1.3,5.2-3.6,5.6-34.4,5.6H94.8Z" transform="translate(-46.09 -25.18)"/><path class="cls-1" d="M91.9,241c-3.3-3.3-3.3-5.9.2-9.5,1.9-1.9,3.5-2,31-2.3l29-.3,2.9,3c3.8,3.7,3.8,5.5.1,9.2l-2.9,2.9H94.8Z" transform="translate(-46.09 -25.18)"/><path class="cls-1" d="M92.5,225.4c-7.9-4.1-10.7-10.3-13-28.8-1.9-15.6-4.2-21.9-13.8-37.8C55,141.2,50.6,131.8,48,121.5c-1.9-7.7-2.2-10.7-1.7-21,.9-21.4,7.6-36.7,23.1-52.1,15.1-15.1,30.7-22.2,51.2-23.1,19.4-1,36.6,4.4,52.3,16.2C193.8,57.4,205.8,85,203,111.1c-1.6,14.9-5.6,25.2-17.6,44.6-11.7,18.9-13.6,24-15.8,41.8-2.2,17.6-5.1,24.1-12.8,28.1C152.6,227.8,96.7,227.6,92.5,225.4Zm62-13.4c.9-1.7,2.5-9.5,3.5-17.3,2.5-19.2,3.9-22.7,17.6-45.3,12.6-20.9,15.7-30,15.7-45.9C191.3,74,173.9,50,145,39.8c-8.2-2.9-25.5-3.6-35.5-1.3C90.9,42.6,73.2,56.4,65.2,73.1A80.08,80.08,0,0,0,59.6,88c-2.2,9.3-2,23,.4,32.5,1.9,7.5,9.1,22.4,15,31,4.6,6.8,10.8,18.7,12.8,25a96.66,96.66,0,0,1,3.1,16c1.5,12.7,2.9,19.2,4.8,21,1.2,1.3,6.2,1.5,29.3,1.5h27.9Z" transform="translate(-46.09 -25.18)"/></g><path class="cls-2" d="M75,81.24V71.3h1.11l4.83,7v-7h1.42v9.92H81.19L76.4,74.31v6.93Z" transform="translate(-46.09 -25.18)"/><path d="M84.52,72.69a5,5,0,0,1,7.16,0,5.1,5.1,0,0,1,0,7.17,5,5,0,0,1-7.16,0,5.1,5.1,0,0,1,0-7.17Zm6.14,1a3.65,3.65,0,0,0-2.57-1.08,3.56,3.56,0,0,0-2.54,1.08,3.63,3.63,0,0,0,0,5.13,3.56,3.56,0,0,0,2.54,1.08,3.65,3.65,0,0,0,2.57-6.21Z" transform="translate(-46.09 -25.18)"/><path d="M96,76.21h1.67a1.72,1.72,0,1,0,0-3.44h-2.2v8.48H94.06V71.32h3.61a3.07,3.07,0,0,1,3.23,3.16,3,3,0,0,1-2.57,3l3.13,3.73H99.62L96,76.89Z" transform="translate(-46.09 -25.18)"/><path d="M102.89,81.28V72.65h-3V71.32h7.43v1.33h-3v8.63Z" transform="translate(-46.09 -25.18)"/><path d="M109.38,75.51h4.2V71.33H115v9.91h-1.45V76.93h-4.2v4.31H108V71.33h1.43Z" transform="translate(-46.09 -25.18)"/><path class="cls-2" d="M121.35,76.52c-.57,1.62-1.18,3.3-1.69,4.81H118.6l-3.3-10h1.49l2.37,7.16,1.63-4.64h1.15l1.62,4.62c.78-2.37,1.64-4.89,2.38-7.14h1.5l-3.3,10h-1.06Z" transform="translate(-46.09 -25.18)"/><path d="M129.4,79.81H134v1.43H128V71.33h6v1.43H129.4v2.79h4.49V77H129.4Z" transform="translate(-46.09 -25.18)"/><path d="M140.05,73.88a1.9,1.9,0,0,0-2-1.26,2.36,2.36,0,0,0-1.8.75,1.3,1.3,0,0,0-.24.92c.07,1,1.19,1.15,2.25,1.25,1.36.17,3,.52,3.43,2.11a3.49,3.49,0,0,1,.07.65c0,1.91-1.9,3-3.69,3-1.53,0-3.39-.91-3.57-2.68v-.27l1.45,0v.16c.1.92,1.22,1.4,2.14,1.4s2.23-.6,2.23-1.62a1.59,1.59,0,0,0,0-.34c-.17-.75-1.19-.88-2.18-1-1.54-.16-3.36-.5-3.52-2.57h0a2.68,2.68,0,0,1,.54-1.89,3.82,3.82,0,0,1,3-1.32,3.15,3.15,0,0,1,3.37,2.61Z" transform="translate(-46.09 -25.18)"/><path d="M143.81,81.28V72.65h-3V71.32h7.43v1.33h-3v8.63Z" transform="translate(-46.09 -25.18)"/><path d="M150.27,79.81h4.61v1.43h-6.05V71.33h6v1.43h-4.59v2.79h4.49V77h-4.49Z" transform="translate(-46.09 -25.18)"/><path d="M157.47,76.21h1.67a1.72,1.72,0,1,0,0-3.44h-2.2v8.48h-1.42V71.32h3.61a3.07,3.07,0,0,1,3.23,3.16,3,3,0,0,1-2.57,3l3.13,3.73h-1.86l-3.62-4.35Z" transform="translate(-46.09 -25.18)"/><path d="M163.34,81.24V71.3h1.11l4.83,7v-7h1.42v9.92h-1.13l-4.79-6.93v6.93Z" transform="translate(-46.09 -25.18)"/><path class="cls-2" d="M76.36,96.82H81v1.43H74.91V88.34h6v1.43H76.36v2.79h4.49V94H76.36Z" transform="translate(-46.09 -25.18)"/><path d="M81.63,95.27V88.34h1.45v6.95c0,1.09,1.18,1.63,2.23,1.63s2.21-.55,2.21-1.64V88.34H89v6.95c0,2-2,3.06-3.66,3.06S81.63,97.3,81.63,95.27Z" transform="translate(-46.09 -25.18)"/><path d="M91.91,93.22h1.67a1.72,1.72,0,1,0,0-3.44h-2.2v8.48H90V88.33h3.61a3.07,3.07,0,0,1,3.23,3.16,3,3,0,0,1-2.57,3l3.13,3.73H95.52L91.91,93.9Z" transform="translate(-46.09 -25.18)"/><path d="M98.55,89.7a5,5,0,0,1,7.16,0,5.1,5.1,0,0,1,0,7.17,5,5,0,0,1-7.16,0,5.1,5.1,0,0,1,0-7.17Zm6.14,1a3.65,3.65,0,0,0-2.57-1.08,3.56,3.56,0,0,0-2.54,1.08,3.63,3.63,0,0,0,0,5.13,3.56,3.56,0,0,0,2.54,1.08,3.65,3.65,0,0,0,2.57-6.21Z" transform="translate(-46.09 -25.18)"/><path d="M112,88.33a3.31,3.31,0,0,1,0,6.62h-2.18v3.3h-1.45V88.33Zm0,5.2a1.88,1.88,0,0,0,0-3.76h-2.18v3.76Z" transform="translate(-46.09 -25.18)"/><path d="M117.32,96.82h4.61v1.43h-6.05V88.34h6v1.43h-4.59v2.79h4.49V94h-4.49Z" transform="translate(-46.09 -25.18)"/><path d="M127.88,95.33h-3.56c-.38.91-.88,2.1-1.19,2.92h-1.54l4-10.05h1l4,10.05h-1.53Zm-3-1.35h2.47l-1.22-3.5Z" transform="translate(-46.09 -25.18)"/><path d="M131.05,98.25V88.31h1.11l4.83,7v-7h1.42v9.92h-1.13l-4.79-6.93v6.93Z" transform="translate(-46.09 -25.18)"/><path class="cls-2" d="M76.93,110.22H78.6a1.72,1.72,0,1,0,0-3.44H76.4v8.48H75v-9.92H78.6a3.07,3.07,0,0,1,3.23,3.16,3,3,0,0,1-2.57,3l3.13,3.73H80.54l-3.61-4.35Z" transform="translate(-46.09 -25.18)"/><path d="M83.83,113.82h4.61v1.43H82.38v-9.91h6v1.43H83.83v2.79h4.49V111H83.83Z" transform="translate(-46.09 -25.18)"/><path d="M97,108.89a3.09,3.09,0,0,0-3.19-2.18,3.63,3.63,0,0,0,0,7.24,3.24,3.24,0,0,0,3.12-2H93.21v-1.43h5.34a7.12,7.12,0,0,1-.27,1.71h0a5,5,0,0,1-4.52,3.12,5,5,0,0,1,0-10.05,4.56,4.56,0,0,1,4.72,3.61Z" transform="translate(-46.09 -25.18)"/><path d="M103.87,106.77H102v7.06h1.84v1.43H98.75v-1.43h1.84v-7.06H98.75v-1.42h5.12Z" transform="translate(-46.09 -25.18)"/><path d="M105.27,106.71a5,5,0,0,1,7.16,0,5.1,5.1,0,0,1,0,7.17,5,5,0,0,1-7.16,0,5.1,5.1,0,0,1,0-7.17Zm6.14,1a3.65,3.65,0,0,0-2.57-1.08,3.56,3.56,0,0,0-2.54,1.08,3.63,3.63,0,0,0,0,5.13,3.56,3.56,0,0,0,2.54,1.08,3.65,3.65,0,0,0,2.57-6.21Z" transform="translate(-46.09 -25.18)"/><path d="M114.8,115.26v-9.94h1.11l4.83,7v-7h1.42v9.92H121l-4.79-6.93v6.93Z" transform="translate(-46.09 -25.18)"/><path d="M129,112.34h-3.56c-.38.91-.88,2.1-1.19,2.92h-1.54l4-10.05h1l4,10.05h-1.53ZM126,111h2.47l-1.22-3.5Z" transform="translate(-46.09 -25.18)"/><path d="M133.72,113.82h4.66v1.43h-6.1v-9.91h1.43Z" transform="translate(-46.09 -25.18)"/><path class="cls-2" d="M76.2,123.77a4.79,4.79,0,0,1,3.43-1.47A4.64,4.64,0,0,1,84.26,126H82.84a3.23,3.23,0,0,0-3.2-2.24,3.38,3.38,0,0,0-2.44,1.06,3.67,3.67,0,0,0,0,5.08,3.42,3.42,0,0,0,5.73-1.3h1.4a4.79,4.79,0,0,1-4.69,3.78,4.73,4.73,0,0,1-3.43-1.47,5.14,5.14,0,0,1,0-7.09Z" transform="translate(-46.09 -25.18)"/><path d="M86.25,123.72a5,5,0,0,1,7.16,0,5.1,5.1,0,0,1,0,7.17,5,5,0,0,1-7.16,0,5.1,5.1,0,0,1,0-7.17Zm6.14,1a3.65,3.65,0,0,0-2.57-1.08,3.56,3.56,0,0,0-2.54,1.08,3.63,3.63,0,0,0,0,5.13,3.56,3.56,0,0,0,2.54,1.08,3.65,3.65,0,0,0,2.57-6.21Z" transform="translate(-46.09 -25.18)"/><path d="M95.78,132.26v-9.94h1.11l4.83,7v-7h1.42v9.92H102l-4.79-6.93v6.93Z" transform="translate(-46.09 -25.18)"/><path d="M105.43,132.31v-8.63h-3v-1.33h7.43v1.33h-3v8.63Z" transform="translate(-46.09 -25.18)"/><path d="M111.89,130.83h4.61v1.43h-6.05v-9.91h6v1.43h-4.59v2.79h4.49V128h-4.49Z" transform="translate(-46.09 -25.18)"/><path d="M122.55,124.91a1.9,1.9,0,0,0-2-1.26,2.36,2.36,0,0,0-1.8.75,1.3,1.3,0,0,0-.24.92c.07,1,1.19,1.15,2.25,1.25,1.36.17,3,.52,3.43,2.11a3.53,3.53,0,0,1,.07.65c0,1.91-1.9,3-3.69,3-1.53,0-3.39-.91-3.57-2.68v-.27l1.45,0v.16c.1.92,1.22,1.4,2.14,1.4s2.23-.6,2.23-1.62a1.59,1.59,0,0,0,0-.34c-.17-.75-1.19-.88-2.18-1-1.54-.16-3.36-.5-3.52-2.57h0a2.68,2.68,0,0,1,.54-1.89,3.83,3.83,0,0,1,3-1.32,3.15,3.15,0,0,1,3.37,2.61Z" transform="translate(-46.09 -25.18)"/><path d="M126.31,132.31v-8.63h-3v-1.33h7.43v1.33h-3v8.63Z" transform="translate(-46.09 -25.18)"/><text x="-46.09" y="-25.18"></text><text x="-46.09" y="-25.18"></text><text x="-46.09" y="-25.18"></text></svg>