<svg xmlns="http://www.w3.org/2000/svg" viewBox="0 0 385.06 99.12"><title>Logo-IMC-Trading-FC</title><polygon points="210.15 77.84 210.15 80.97 213.64 80.97 213.64 98.83 217.24 98.83 217.24 80.97 220.74 80.97 220.74 77.84 210.15 77.84" style="fill:#0080c9"/><path d="M345.29,458.8h1.28c1.95,0,2.67-.72,2.67-3.23s-.73-3.23-2.67-3.23h-1.28Zm0,11.58h-3.61v-21h5.06c4,0,6.1,1.71,6.1,6.19,0,3.38-1.31,4.74-2.53,5.29l3.05,9.51h-3.66l-2.56-8.7a17.42,17.42,0,0,1-1.86.09Z" transform="translate(-104.67 -371.55)" style="fill:#0080c9"/><path d="M374.91,453.57H375l1.42,9h-2.91Zm-2.21-4.19-3.87,21h3.49l.64-4.66h3.95l.64,4.66H381l-3.87-21Z" transform="translate(-104.67 -371.55)" style="fill:#0080c9"/><path d="M400.43,467.41h1.25c1.92,0,2.59-.73,2.59-2.94v-9.19c0-2.21-.67-2.94-2.59-2.94h-1.25Zm-3.61-18h5.35c3.72,0,5.7,2,5.7,6.34V464c0,4.3-2,6.34-5.7,6.34h-5.35Z" transform="translate(-104.67 -371.55)" style="fill:#0080c9"/><rect x="323.29" y="77.83" width="3.6" height="21" style="fill:#0080c9"/><polygon points="354.78 77.84 354.78 89.84 354.72 89.84 350.33 77.84 346.98 77.84 346.98 98.83 350.24 98.83 350.24 85.71 350.3 85.71 354.89 98.83 358.03 98.83 358.03 77.84 354.78 77.84" style="fill:#0080c9"/><path d="M483.43,459.73h5.9v10.64h-1.74l-.67-1.57a4.18,4.18,0,0,1-3.64,1.86c-2.85,0-4.83-2-4.83-5.38V454.47c0-3,1.74-5.38,5.29-5.38s5.41,2.62,5.41,5.76v1.34h-3.43c0-3.14-.64-4-2.06-4-.87,0-1.6.52-1.6,2.3v10.79c0,1.34.43,2.21,1.68,2.21,1.46,0,2-.81,2-2.91v-2h-2.3Z" transform="translate(-104.67 -371.55)" style="fill:#0080c9"/><path d="M428.67,428.25V400.49c0-5.8-.64-9.9-3.38-13.48-3.45-4.47-7.63-6.2-13.09-6.2-7.69,0-14,4.65-18,10.09A14.23,14.23,0,0,0,392,387c-3.45-4.47-7.63-6.2-13.08-6.2-6.9,0-12.65,3.75-16.72,8.46,0-3,0-5.53,0-7.36h-16.8v1.64h1c2.27,0,3.71,1.36,3.71,4.1,0,.9,0,39.8,0,40.63,0,2.73-1.45,4.1-3.71,4.1h-1V434h21.51v-1.66h-1c-2.27,0-3.71-1.36-3.71-4.09,0-.56,0-18.79,0-32.76,2.7-3.59,7.23-7.56,12-7.56a8.51,8.51,0,0,1,7.32,3.4,10.73,10.73,0,0,1,1.74,6.69v30.22c0,2.73-1.44,4.09-3.7,4.09h-1V434h21.53v-1.66h-1c-2.27,0-3.71-1.36-3.71-4.09,0-.9,0-22.75,0-27.76,0-1.68-.05-3.2-.19-4.63,2.67-3.67,7.34-7.92,12.31-7.92a8.54,8.54,0,0,1,7.33,3.4A10.75,10.75,0,0,1,416.6,398c0,2.55,0,29.32,0,30.22,0,2.73-1.44,4.09-3.71,4.09h-1V434H433.4v-1.66h-1c-2.27,0-3.71-1.36-3.71-4.09" transform="translate(-104.67 -371.55)" style="fill:#0080c9"/><path d="M315.25,383.56h1c2.27,0,3.71,1.37,3.71,4.1,0,.9,0,39.35,0,40.18,0,2.73-1.44,4.54-3.71,4.54h-1V434l21.5,0v-1.64h-1c-2.27,0-3.7-1.36-3.7-4.1,0-.9,0-39.71,0-40.62,0-2.73,1.44-4.1,3.71-4.1h1v-1.66H315.25Z" transform="translate(-104.67 -371.55)" style="fill:#0080c9"/><path d="M487.23,420.58a20,20,0,0,1-17.42,9.24c-8-.27-15.06-6.84-18.21-17.79-3.9-13.53-.56-22.78,8.16-26.8,6.77-3.13,14.6.16,16.89,3.43-3.05,1.49-3.63,5.32-2.92,7.63a6.82,6.82,0,0,0,10.7,3.26c2.33-1.79,3-4.68,2.33-7.56-.7-3.11-3.27-5.55-6.27-7.44a26.57,26.57,0,0,0-14.36-4c-14.16-.14-27.3,11.78-27.3,28.11,0,16.82,14.56,27,27.08,27a27,27,0,0,0,23.82-13.44Z" transform="translate(-104.67 -371.55)" style="fill:#0080c9"/><path d="M139.89,388.35a4.94,4.94,0,1,1,4.89-4.94,4.92,4.92,0,0,1-4.89,4.94m0-16.8a11.86,11.86,0,1,0,11.74,11.86,11.8,11.8,0,0,0-11.74-11.86" transform="translate(-104.67 -371.55)" style="fill:#0080c9"/><path d="M186.85,412.08a4.94,4.94,0,1,1,4.89-4.94,4.92,4.92,0,0,1-4.89,4.94m0-16.81a11.86,11.86,0,1,0,11.74,11.86,11.8,11.8,0,0,0-11.74-11.86" transform="translate(-104.67 -371.55)" style="fill:#0080c9"/><path d="M186.85,388.35a4.94,4.94,0,1,1,4.89-4.94,4.92,4.92,0,0,1-4.89,4.94m0-16.8a11.86,11.86,0,1,0,11.74,11.86,11.8,11.8,0,0,0-11.74-11.86" transform="translate(-104.67 -371.55)" style="fill:#0080c9"/><path d="M163.37,412.08a4.94,4.94,0,1,1,4.89-4.94,4.92,4.92,0,0,1-4.89,4.94m0-16.81a11.86,11.86,0,1,0,11.74,11.86,11.8,11.8,0,0,0-11.74-11.86" transform="translate(-104.67 -371.55)" style="fill:#0080c9"/><path d="M163.37,388.35a4.94,4.94,0,1,1,4.89-4.94,4.92,4.92,0,0,1-4.89,4.94m0-16.8a11.86,11.86,0,1,0,11.74,11.86,11.8,11.8,0,0,0-11.74-11.86" transform="translate(-104.67 -371.55)" style="fill:#0080c9"/><path d="M163.37,435.8a4.94,4.94,0,1,1,4.89-4.94,4.92,4.92,0,0,1-4.89,4.94m0-16.81a11.86,11.86,0,1,0,11.74,11.86A11.8,11.8,0,0,0,163.37,419" transform="translate(-104.67 -371.55)" style="fill:#0080c9"/><path d="M139.89,435.8a4.94,4.94,0,1,1,4.89-4.94,4.92,4.92,0,0,1-4.89,4.94m0-16.81a11.86,11.86,0,1,0,11.74,11.86A11.8,11.8,0,0,0,139.89,419" transform="translate(-104.67 -371.55)" style="fill:#0080c9"/><path d="M210.34,412.08a4.94,4.94,0,1,1,4.89-4.94,4.92,4.92,0,0,1-4.89,4.94m0-16.81a11.86,11.86,0,1,0,11.74,11.86,11.8,11.8,0,0,0-11.74-11.86" transform="translate(-104.67 -371.55)" style="fill:#0080c9"/><path d="M233.82,412.08a4.94,4.94,0,1,1,4.89-4.94,4.92,4.92,0,0,1-4.89,4.94m0-16.81a11.86,11.86,0,1,0,11.74,11.86,11.8,11.8,0,0,0-11.74-11.86" transform="translate(-104.67 -371.55)" style="fill:#0080c9"/><path d="M257.3,412.08a4.94,4.94,0,1,1,4.89-4.94,4.92,4.92,0,0,1-4.89,4.94m0-16.81A11.86,11.86,0,1,0,269,407.13a11.8,11.8,0,0,0-11.74-11.86" transform="translate(-104.67 -371.55)" style="fill:#0080c9"/><path d="M116.41,388.35a4.94,4.94,0,1,1,4.89-4.94,4.92,4.92,0,0,1-4.89,4.94m0-16.8a11.86,11.86,0,1,0,11.74,11.86,11.8,11.8,0,0,0-11.74-11.86" transform="translate(-104.67 -371.55)" style="fill:#0080c9"/><path d="M186.85,435.8a4.94,4.94,0,1,1,4.89-4.94,4.92,4.92,0,0,1-4.89,4.94m0-16.81a11.86,11.86,0,1,0,11.74,11.86A11.8,11.8,0,0,0,186.85,419" transform="translate(-104.67 -371.55)" style="fill:#0080c9"/><path d="M210.34,388.35a4.94,4.94,0,1,1,4.89-4.94,4.92,4.92,0,0,1-4.89,4.94m0-16.8a11.86,11.86,0,1,0,11.74,11.86,11.8,11.8,0,0,0-11.74-11.86" transform="translate(-104.67 -371.55)" style="fill:#0080c9"/><path d="M233.82,388.35a4.94,4.94,0,1,1,4.89-4.94,4.92,4.92,0,0,1-4.89,4.94m0-16.8a11.86,11.86,0,1,0,11.74,11.86,11.8,11.8,0,0,0-11.74-11.86" transform="translate(-104.67 -371.55)" style="fill:#0080c9"/><path d="M280.78,388.35a4.94,4.94,0,1,1,4.89-4.94,4.92,4.92,0,0,1-4.89,4.94m0-16.8a11.86,11.86,0,1,0,11.74,11.86,11.8,11.8,0,0,0-11.74-11.86" transform="translate(-104.67 -371.55)" style="fill:#0080c9"/><path d="M280.78,435.8a4.94,4.94,0,1,1,4.89-4.94,4.92,4.92,0,0,1-4.89,4.94m0-16.81a11.86,11.86,0,1,0,11.74,11.86A11.8,11.8,0,0,0,280.78,419" transform="translate(-104.67 -371.55)" style="fill:#0080c9"/><path d="M257.3,388.35a4.94,4.94,0,1,1,4.89-4.94,4.92,4.92,0,0,1-4.89,4.94m0-16.8A11.86,11.86,0,1,0,269,383.41a11.8,11.8,0,0,0-11.74-11.86" transform="translate(-104.67 -371.55)" style="fill:#0080c9"/><path d="M257.3,435.8a4.94,4.94,0,1,1,4.89-4.94,4.92,4.92,0,0,1-4.89,4.94m0-16.81A11.86,11.86,0,1,0,269,430.86,11.8,11.8,0,0,0,257.3,419" transform="translate(-104.67 -371.55)" style="fill:#0080c9"/><path d="M233.82,435.8a4.94,4.94,0,1,1,4.89-4.94,4.92,4.92,0,0,1-4.89,4.94m0-16.81a11.86,11.86,0,1,0,11.74,11.86A11.8,11.8,0,0,0,233.82,419" transform="translate(-104.67 -371.55)" style="fill:#0080c9"/><path d="M210.34,435.8a4.94,4.94,0,1,1,4.89-4.94,4.92,4.92,0,0,1-4.89,4.94m0-16.81a11.86,11.86,0,1,0,11.74,11.86A11.8,11.8,0,0,0,210.34,419" transform="translate(-104.67 -371.55)" style="fill:#0080c9"/><path d="M116.41,412.08a4.94,4.94,0,1,1,4.89-4.94,4.92,4.92,0,0,1-4.89,4.94m0-16.81a11.86,11.86,0,1,0,11.74,11.86,11.8,11.8,0,0,0-11.74-11.86" transform="translate(-104.67 -371.55)" style="fill:#0080c9"/><path d="M139.89,412.08a4.94,4.94,0,1,1,4.89-4.94,4.92,4.92,0,0,1-4.89,4.94m0-16.81a11.86,11.86,0,1,0,11.74,11.86,11.8,11.8,0,0,0-11.74-11.86" transform="translate(-104.67 -371.55)" style="fill:#0080c9"/><path d="M116.41,435.8a4.94,4.94,0,1,1,4.89-4.94,4.92,4.92,0,0,1-4.89,4.94m0-16.81a11.86,11.86,0,1,0,11.74,11.86A11.8,11.8,0,0,0,116.41,419" transform="translate(-104.67 -371.55)" style="fill:#0080c9"/><path d="M280.78,412.08a4.94,4.94,0,1,1,4.89-4.94,4.92,4.92,0,0,1-4.89,4.94m0-16.81a11.86,11.86,0,1,0,11.74,11.86,11.8,11.8,0,0,0-11.74-11.86" transform="translate(-104.67 -371.55)" style="fill:#0080c9"/></svg>