<svg version="1.1" id="Layer_1" xmlns="http://www.w3.org/2000/svg" x="0" y="0" viewBox="0 0 726.7 199.3" xml:space="preserve"><path d="M351 57c-7-7.2-16.3-10.8-27.3-10.8-13 0-24.3 4.9-33.4 14.5-9.2 9.6-13.7 22.3-13.7 37.7 0 6.8 1.5 13.2 4.5 19.2s7.6 10.8 13.5 14.2c5.9 3.4 12.5 5.1 19.6 5 6.8 0 13.2-1.4 19.3-4.3 4.6-2.2 8.9-5.2 12.9-9.2 4-4 7.3-8.7 9.9-14.1 3.5-7.2 5.3-15.1 5.3-23.6 0-11.8-3.5-21.4-10.6-28.6m-35.9 67.4c-4.3 0-8.4-1.1-12.4-3.3-3.9-2.2-6.8-5.2-8.8-9.1-2-3.9-3-8.3-3-13 0-12.5 3.4-22.2 10-29.5 6.7-7.3 14.2-10.9 22.8-10.9 6.7 0 12.2 2.3 16.7 7.1 4.5 4.7 6.8 11 6.8 19.1 0 5-.9 10.1-2.7 15.4-1.8 5.2-4.2 9.6-7.2 13.1s-6.5 6.3-10.3 8.3c-3.8 1.9-7.7 2.8-11.9 2.8M394.3 135.3c5.7 0 10.5-.4 14.5-1.4 5.2-1.2 9.7-3 13.6-5.5 3.9-2.5 7.5-6 11-10.3 3.5-4.4 6.3-9.5 8.5-15.2 2.2-5.8 3.2-12.2 3.2-19.2 0-5.8-.9-11.2-2.6-15.9-1.8-4.8-4.4-8.8-7.9-12-3.5-3.2-7.8-5.5-12.7-6.7-3.5-.9-8.4-1.4-14.7-1.4H380l-18.6 87.6h32.9zm11.7-75c5.8 0 10 .5 12.6 1.3 3.4 1.1 6.2 3.3 8.5 6.7 2.2 3.3 3.4 8.3 3.4 15 0 6-.9 11.3-2.6 16-1.7 4.7-4 8.9-6.9 12.5-2.2 2.7-4.6 4.9-7.2 6.5-2 1.2-4.4 2.2-7.2 2.9-4.6 1.1-10 1.6-16.1 1.6h-11.8L392 60.3h14zM460.4 135.3l8-37.6h12.2c4.5 0 7.7.5 9.3 1.2 1.7.7 3.5 2.4 5.4 5.2 2.8 4.1 5.3 8.9 7.5 14.5l6.5 16.7h16.1l-7.4-18c-2.2-5.4-5.2-10.7-8.9-15.7-1.2-1.7-2.8-3.3-4.7-4.9 8.7-1.5 15.3-4.4 19.7-8.7 4.9-4.8 7.3-11 7.3-18.2 0-5.1-1.1-9.5-3.4-13s-5.5-6-9.5-7.2c-3.9-1.2-9.5-1.8-16.7-1.8h-37.4l-18.7 87.6 14.7-.1zm55-58.3c-1.4 2.3-3.3 4.1-5.9 5.5-2.6 1.4-5.9 2.3-10.2 2.7-2.1.2-6.9.3-14.3.3h-14.1l5.5-25.7h26.9c4.3 0 7.4.3 8.9.9 1.5.5 2.7 1.5 3.7 3.1s1.5 3.4 1.5 5.7c.1 2.8-.6 5.2-2 7.5M545.8 135.3l18.6-87.6h-14.5l-18.7 87.6zM601.5 135.3l49-87.6h-15.3L604 103.9c-1.8 3.4-4.1 7.7-6.7 12.9-.7-4.9-1.7-10.7-3-17.4L584 47.7h-14.1l17.2 87.6h14.4zM706.7 135.3l2.6-12.5H655l5.2-24.6h41.4l2.7-12.6h-41.4l5.4-25.3h49.8l2.7-12.6h-64.3l-18.7 87.6z"/><path fill="#ED1B24" d="M574.4 18.6c0 6.2-5.1 11.3-11.3 11.3-6.2 0-11.3-5.1-11.3-11.3s5.1-11.3 11.3-11.3c6.2 0 11.3 5 11.3 11.3"/><path fill="#0095DA" d="M35.5 122l7.6-36.3h51.4l-14.7 68.8h234l-2.8 13.2H64.2L79 98.9H53.3l-7.7 36.2H7.5l2.8-13.1z"/><path d="M201.3 135.3l8-37.6h12.2c4.5 0 7.7.5 9.3 1.2 1.7.7 3.5 2.4 5.4 5.2 2.8 4.1 5.3 8.9 7.5 14.5l6.5 16.7h16.1l-7.4-18c-2.2-5.4-5.2-10.7-8.9-15.7-1.2-1.7-2.8-3.3-4.7-4.9 8.7-1.5 15.3-4.4 19.7-8.7 4.9-4.8 7.3-11 7.3-18.2 0-5.1-1.1-9.5-3.4-13s-5.5-6-9.5-7.2c-3.9-1.2-9.5-1.8-16.7-1.8h-37.4l-18.7 87.6 14.7-.1zm55-58.3c-1.4 2.3-3.3 4.1-5.9 5.5-2.6 1.4-5.9 2.3-10.2 2.7-2.1.2-6.9.3-14.3.3h-14.1l5.5-25.7h26.9c4.4 0 7.4.3 8.9.9 1.5.5 2.7 1.5 3.7 3.1s1.5 3.4 1.5 5.7c.1 2.8-.6 5.2-2 7.5"/><path fill="#0095DA" d="M338.1 160.3l-6.6 31.1h-6.4l6.7-31.1h-10.5l1.2-5.8h27.3l-1.2 5.8zM348 191.4l7.8-36.9h18.5l-1.3 6.1h-12.1l-2 9.4h10.5l-1.2 5.9h-10.5l-2 9.5h13.5l-1.3 6zM400.9 189.6c-3.7 1.9-7.4 2.6-11.1 2.6-10.2 0-14.5-7.8-12.2-18.6 2.5-11.8 11-19.7 21.9-19.7 3 0 6 .4 8.2 2.1l-1.4 6.9c-2.1-2.1-4.5-3.1-7.8-3.1-7.4 0-12.1 5.8-13.7 13.4-1.5 7.3.9 12.9 7.9 12.9 3.6 0 7.2-.9 10.6-3.2-.9 2.2-1.5 4.5-2.4 6.7M431.9 191.4l3.3-15.8h-15.7l-3.4 15.8h-6.4l7.9-36.9h6.4l-3.2 15h15.7l3.2-15h6.4l-7.8 36.9zM472.9 191.4l-12.5-25.2-5.3 25.2h-5.8l7.8-36.9h6.1l11.8 23.8 5-23.8h5.9l-7.9 36.9zM503.5 192.1c-10.7 0-15.3-7.4-12.9-18.8 2.5-11.6 10.8-19.4 21.6-19.4 10.7 0 15.3 7.4 12.9 18.8-2.5 11.6-10.7 19.4-21.6 19.4m7.2-32.3c-7.1 0-11.2 6.4-12.6 13.2-1.4 6.7.2 13.1 7 13.1 7 0 11.1-6.3 12.5-13.1 1.5-6.7.1-13.2-6.9-13.2M528.8 191.4l7.8-36.9h6.4l-6.6 30.9h13.7l-1.3 6zM568.5 192.1c-10.7 0-15.3-7.4-12.9-18.8 2.5-11.6 10.8-19.4 21.6-19.4 10.7 0 15.3 7.4 12.9 18.8-2.5 11.6-10.8 19.4-21.6 19.4m7.2-32.3c-7.1 0-11.2 6.4-12.6 13.2-1.4 6.7.2 13.1 7 13.1 7 0 11.1-6.3 12.5-13.1 1.5-6.7.1-13.2-6.9-13.2M609.5 192.1c-10.7 0-16.1-6.8-13.6-18.7 2.5-11.9 12-19.5 22.7-19.5 2.5 0 5.8.4 7.8 1.7l-.9 6.8c-2-1.8-4.9-2.7-7.8-2.7-7.6 0-13 5.5-14.7 13.6-1.7 8.1 1 12.9 8.6 12.9 1.5 0 2.8-.1 4.4-.5l1.5-7.1h-5.6l1.3-6.1h12l-3.7 17.4c-4 1.8-8 2.2-12 2.2M631.1 191.4l7.9-36.9h6.4l-7.9 36.9zM648.6 191.4l7.8-36.9h18.5l-1.3 6.1h-12.1l-2 9.4H670l-1.3 5.9h-10.4l-2.1 9.5h13.6l-1.3 6zM683.5 192c-2.9 0-6.5-.6-8.4-2.6l1.9-6.8c2 2.4 4.3 3.9 7.7 3.9 2.9 0 5.5-1.3 6.3-4.8 1.7-8.1-14.1-3.7-11.3-16.8 1.6-7.6 7.6-10.9 14-10.9 2.8 0 5.5.5 7.6 2.1l-2.1 6.4c-1.6-2-4.1-3.1-6.8-3.1-2.5 0-5 1.3-5.7 4.3-1.7 7.9 14.3 3.5 11.5 16.8-1.6 7.9-8 11.5-14.7 11.5"/><path d="M122 135.2l7.3-34.4h20.4c5.8 0 11.5-.7 17.1-1.9 2.7-.6 5.3-1.5 7.7-2.8 2.5-1.3 4.8-3.2 7.1-5.6 2.4-2.5 4.3-5.7 5.8-9.4 1.5-3.8 2.3-7.5 2.3-11.2 0-4.5-1.1-8.6-3.3-12.2-2.2-3.6-5-6.3-8.4-7.8-3.5-1.5-8.3-2.2-14.6-2.2h-37.2l-18.7 87.6H122zm53.4-65c0 3.3-.9 6.4-2.9 9.4-1.9 3-4.5 5.1-7.7 6.6-3.1 1.4-8.4 2.2-15.6 2.2H132l6.1-28.6H159c5.6 0 9.4.5 11 1.1 1.7.7 3 1.8 4 3.3.9 1.4 1.4 3.4 1.4 6"/></svg>