<svg xmlns="http://www.w3.org/2000/svg" viewBox="0 0 224.5 61.23"><title>TUe-logo-descriptor-line-scarlet-cmyk</title><rect width="224.5" height="61.23" style="fill:#fff;opacity:0"/><path d="M122.48,20.41V12.77h5.14v1.55h-3.36v1.45h3.18v1.48h-3.18v1.59h3.55v1.58Z" style="fill:#c72127"/><path d="M129.31,20.41V12.77h1.86v7.64Z" style="fill:#c72127"/><path d="M137.8,20.41l-3.08-5h0l0,5h-1.79V12.77H135l3.07,5h0l0-5h1.79v7.64Z" style="fill:#c72127"/><path d="M148.81,16.57a3.76,3.76,0,0,1-.37,1.73,3.49,3.49,0,0,1-1,1.2,4.1,4.1,0,0,1-1.38.69,5.59,5.59,0,0,1-1.56.22h-2.85V12.77h2.76A6.84,6.84,0,0,1,146,13a4,4,0,0,1,1.4.63,3.21,3.21,0,0,1,1,1.17A3.93,3.93,0,0,1,148.81,16.57Zm-1.92,0a2.42,2.42,0,0,0-.21-1.07,1.81,1.81,0,0,0-.56-.68,2.25,2.25,0,0,0-.8-.36,4,4,0,0,0-.92-.11h-.92v4.47h.87a4,4,0,0,0,1-.11,2.26,2.26,0,0,0,.81-.37,1.84,1.84,0,0,0,.56-.69A2.42,2.42,0,0,0,146.89,16.57Z" style="fill:#c72127"/><path d="M155,20.41V17.22h-3v3.19H150.2V12.77H152v2.89h3V12.77h1.85v7.64Z" style="fill:#c72127"/><path d="M166.61,16.56a4.26,4.26,0,0,1-.31,1.66,3.77,3.77,0,0,1-.87,1.28,3.87,3.87,0,0,1-1.32.83,4.88,4.88,0,0,1-3.32,0,3.88,3.88,0,0,1-1.32-.83,3.76,3.76,0,0,1-.87-1.28,4.25,4.25,0,0,1-.31-1.66,4.2,4.2,0,0,1,.31-1.66,3.63,3.63,0,0,1,.87-1.26,3.87,3.87,0,0,1,1.32-.8,5.06,5.06,0,0,1,3.32,0,3.87,3.87,0,0,1,1.32.8,3.63,3.63,0,0,1,.87,1.26A4.21,4.21,0,0,1,166.61,16.56Zm-2,0a2.62,2.62,0,0,0-.16-.93,2.21,2.21,0,0,0-.45-.74,2.07,2.07,0,0,0-.69-.49,2.19,2.19,0,0,0-.89-.18,2.13,2.13,0,0,0-1.58.66,2.1,2.1,0,0,0-.45.74,2.7,2.7,0,0,0-.16.93,2.73,2.73,0,0,0,.16,1,2.26,2.26,0,0,0,.45.75,2,2,0,0,0,.69.49,2.29,2.29,0,0,0,1.77,0,2.1,2.1,0,0,0,.69-.49,2.21,2.21,0,0,0,.45-.75A2.73,2.73,0,0,0,164.63,16.56Z" style="fill:#c72127"/><path d="M171.53,20.41h-1.85l-2.89-7.64h2.07l1.77,5.42h0l1.76-5.42h2Z" style="fill:#c72127"/><path d="M175.36,20.41V12.77h5.14v1.55h-3.36v1.45h3.18v1.48h-3.18v1.59h3.55v1.58Z" style="fill:#c72127"/><path d="M187,20.41l-3.08-5h0l0,5h-1.79V12.77h2.11l3.07,5h0l0-5h1.79v7.64Z" style="fill:#c72127"/><path d="M126.48,39.86v6.06h-1.85V39.86h-2.16V38.28h6.17v1.58Z" style="fill:#c72127"/><path d="M129.64,45.92V38.28h5.14v1.55h-3.36v1.45h3.18v1.48h-3.18v1.59H135v1.58Z" style="fill:#c72127"/><path d="M141.8,45.79a4.1,4.1,0,0,1-1.72.34,4.49,4.49,0,0,1-1.64-.29,3.78,3.78,0,0,1-2.17-2.1,4.47,4.47,0,0,1,0-3.3,3.69,3.69,0,0,1,.88-1.27,3.9,3.9,0,0,1,1.32-.8,4.73,4.73,0,0,1,3.22,0,3.05,3.05,0,0,1,1.27.84l-1.25,1.25a1.55,1.55,0,0,0-.68-.53,2.26,2.26,0,0,0-.86-.17,2.19,2.19,0,0,0-.89.18,2.09,2.09,0,0,0-.7.49,2.24,2.24,0,0,0-.45.74,2.61,2.61,0,0,0-.16.93,2.68,2.68,0,0,0,.16.95,2.21,2.21,0,0,0,.45.74,2,2,0,0,0,.69.48,2.18,2.18,0,0,0,.87.17,2,2,0,0,0,1-.22,1.86,1.86,0,0,0,.66-.56l1.29,1.21A3.64,3.64,0,0,1,141.8,45.79Z" style="fill:#c72127"/><path d="M148.85,45.92V42.73h-3v3.19H144V38.28h1.85v2.89h3V38.28h1.85v7.64Z" style="fill:#c72127"/><path d="M157.34,45.92l-3.08-5h0l0,5h-1.79V38.28h2.11l3.07,5h0l0-5h1.79v7.64Z" style="fill:#c72127"/><path d="M169.17,42.07a4.26,4.26,0,0,1-.31,1.66A3.77,3.77,0,0,1,168,45a3.87,3.87,0,0,1-1.32.83,4.88,4.88,0,0,1-3.32,0A3.88,3.88,0,0,1,162,45a3.76,3.76,0,0,1-.87-1.28,4.25,4.25,0,0,1-.31-1.66,4.2,4.2,0,0,1,.31-1.66,3.63,3.63,0,0,1,.87-1.26,3.87,3.87,0,0,1,1.32-.8,5.06,5.06,0,0,1,3.32,0,3.87,3.87,0,0,1,1.32.8,3.63,3.63,0,0,1,.87,1.26A4.21,4.21,0,0,1,169.17,42.07Zm-2,0a2.62,2.62,0,0,0-.16-.93,2.21,2.21,0,0,0-.45-.74,2.07,2.07,0,0,0-.69-.49,2.19,2.19,0,0,0-.89-.18,2.13,2.13,0,0,0-1.58.66,2.1,2.1,0,0,0-.45.74,2.7,2.7,0,0,0-.16.93,2.73,2.73,0,0,0,.16,1,2.26,2.26,0,0,0,.45.75,2,2,0,0,0,.69.49,2.29,2.29,0,0,0,1.77,0,2.1,2.1,0,0,0,.69-.49A2.21,2.21,0,0,0,167,43,2.73,2.73,0,0,0,167.19,42.07Z" style="fill:#c72127"/><path d="M170.55,45.92V38.28h1.86v6h3v1.61Z" style="fill:#c72127"/><path d="M184.25,42.07a4.26,4.26,0,0,1-.31,1.66,3.77,3.77,0,0,1-.87,1.28,3.87,3.87,0,0,1-1.32.83,4.88,4.88,0,0,1-3.32,0A3.88,3.88,0,0,1,177.1,45a3.76,3.76,0,0,1-.87-1.28,4.25,4.25,0,0,1-.31-1.66,4.2,4.2,0,0,1,.31-1.66,3.63,3.63,0,0,1,.87-1.26,3.87,3.87,0,0,1,1.32-.8,5.06,5.06,0,0,1,3.32,0,3.87,3.87,0,0,1,1.32.8,3.63,3.63,0,0,1,.87,1.26A4.21,4.21,0,0,1,184.25,42.07Zm-2,0a2.62,2.62,0,0,0-.16-.93,2.21,2.21,0,0,0-.45-.74,2.07,2.07,0,0,0-.69-.49,2.19,2.19,0,0,0-.89-.18,2.13,2.13,0,0,0-1.58.66,2.1,2.1,0,0,0-.45.74,2.7,2.7,0,0,0-.16.93,2.73,2.73,0,0,0,.16,1,2.26,2.26,0,0,0,.45.75,2,2,0,0,0,.69.49,2.29,2.29,0,0,0,1.77,0,2.1,2.1,0,0,0,.69-.49,2.21,2.21,0,0,0,.45-.75A2.73,2.73,0,0,0,182.27,42.07Z" style="fill:#c72127"/><path d="M191.09,45.93a6.89,6.89,0,0,1-1.64.18,4.75,4.75,0,0,1-1.69-.29,3.9,3.9,0,0,1-1.33-.82,3.73,3.73,0,0,1-.87-1.27,4.48,4.48,0,0,1,0-3.31,3.69,3.69,0,0,1,.88-1.27,3.9,3.9,0,0,1,1.32-.8,4.66,4.66,0,0,1,1.63-.28,5,5,0,0,1,1.68.28,3.48,3.48,0,0,1,1.26.74l-1.17,1.33a2,2,0,0,0-.71-.51,2.42,2.42,0,0,0-1-.2,2.23,2.23,0,0,0-.9.18,2.16,2.16,0,0,0-.71.5,2.25,2.25,0,0,0-.47.75,2.64,2.64,0,0,0-.17,1,3,3,0,0,0,.15,1,2.08,2.08,0,0,0,.45.76,2,2,0,0,0,.73.5,2.63,2.63,0,0,0,1,.18,3.72,3.72,0,0,0,.62,0,2.29,2.29,0,0,0,.54-.16V42.9h-1.46V41.41h3.15v4A5.87,5.87,0,0,1,191.09,45.93Z" style="fill:#c72127"/><path d="M197.71,42.69v3.24h-1.85V42.69L193,38.28h2.24l1.63,2.83,1.63-2.83h2.16Z" style="fill:#c72127"/><path d="M128.8,31.54a2.73,2.73,0,0,1-.66,1,3.06,3.06,0,0,1-1,.63,4.19,4.19,0,0,1-2.72,0,3,3,0,0,1-1-.63,2.74,2.74,0,0,1-.65-1,3.35,3.35,0,0,1-.23-1.26V25.53h1.84v4.61a2.13,2.13,0,0,0,.08.59,1.52,1.52,0,0,0,.25.5,1.17,1.17,0,0,0,.44.35,1.77,1.77,0,0,0,1.33,0,1.21,1.21,0,0,0,.45-.35,1.4,1.4,0,0,0,.25-.5,2.27,2.27,0,0,0,.08-.59V25.53H129v4.76A3.28,3.28,0,0,1,128.8,31.54Z" style="fill:#c72127"/><path d="M135.61,33.17l-3.08-5h0l0,5h-1.79V25.53h2.11l3.07,5h0l0-5h1.79v7.64Z" style="fill:#c72127"/><path d="M139.48,33.17V25.53h1.86v7.64Z" style="fill:#c72127"/><path d="M147,33.17h-1.85l-2.89-7.64h2.07l1.77,5.42h0l1.76-5.42h2Z" style="fill:#c72127"/><path d="M150.79,33.17V25.53h5.14v1.55h-3.36v1.45h3.18V30h-3.18v1.59h3.55v1.58Z" style="fill:#c72127"/><path d="M161.7,33.17l-1.66-3h-.63v3h-1.8V25.53h2.92a5.07,5.07,0,0,1,1.07.11,2.8,2.8,0,0,1,.94.38,2,2,0,0,1,.66.71,2.22,2.22,0,0,1,.25,1.1,2,2,0,0,1-.42,1.31,2.3,2.3,0,0,1-1.17.76l2,3.27Zm-.08-5.3a.76.76,0,0,0-.11-.44.78.78,0,0,0-.29-.26,1.28,1.28,0,0,0-.4-.12,3,3,0,0,0-.43,0h-1V28.8h.88a3,3,0,0,0,.47,0,1.49,1.49,0,0,0,.43-.14.78.78,0,0,0,.44-.75Z" style="fill:#c72127"/><path d="M169,27.51a1.67,1.67,0,0,0-.62-.48,1.75,1.75,0,0,0-.74-.18,2.2,2.2,0,0,0-.37,0A1,1,0,0,0,167,27a.84.84,0,0,0-.25.24.63.63,0,0,0-.1.37.6.6,0,0,0,.08.32.72.72,0,0,0,.24.23,2.1,2.1,0,0,0,.37.18l.49.17.81.29a3,3,0,0,1,.77.42,2.18,2.18,0,0,1,.57.64,1.85,1.85,0,0,1,.23,1,2.49,2.49,0,0,1-.24,1.14,2.27,2.27,0,0,1-.65.79,2.8,2.8,0,0,1-.94.46,4,4,0,0,1-1.09.15,4.51,4.51,0,0,1-1.59-.29,3.36,3.36,0,0,1-1.27-.81L165.57,31a2.23,2.23,0,0,0,.74.58,2,2,0,0,0,.91.23,1.84,1.84,0,0,0,.4,0,1,1,0,0,0,.34-.14.7.7,0,0,0,.23-.26.81.81,0,0,0,.09-.39.61.61,0,0,0-.11-.37,1.05,1.05,0,0,0-.31-.28,2.5,2.5,0,0,0-.5-.23l-.67-.22a6.4,6.4,0,0,1-.72-.28,2.4,2.4,0,0,1-.63-.42,1.92,1.92,0,0,1-.44-.61,2.08,2.08,0,0,1-.17-.88,2.16,2.16,0,0,1,.26-1.09,2.25,2.25,0,0,1,.68-.74,2.92,2.92,0,0,1,1-.43,4.31,4.31,0,0,1,1.07-.14,4,4,0,0,1,1.32.24,3.41,3.41,0,0,1,1.18.7Z" style="fill:#c72127"/><path d="M171.56,33.17V25.53h1.86v7.64Z" style="fill:#c72127"/><path d="M178.41,27.1v6.06h-1.85V27.1H174.4V25.53h6.17V27.1Z" style="fill:#c72127"/><path d="M185.8,29.93v3.24h-1.85V29.93l-2.87-4.4h2.24l1.63,2.83,1.63-2.83h2.16Z" style="fill:#c72127"/><path d="M200.41,29.31A4.26,4.26,0,0,1,200.1,31a3.77,3.77,0,0,1-.87,1.28,3.87,3.87,0,0,1-1.32.83,4.88,4.88,0,0,1-3.32,0,3.88,3.88,0,0,1-1.32-.83A3.76,3.76,0,0,1,192.4,31a4.25,4.25,0,0,1-.31-1.66,4.2,4.2,0,0,1,.31-1.66,3.63,3.63,0,0,1,.87-1.26,3.87,3.87,0,0,1,1.32-.8,5.06,5.06,0,0,1,3.32,0,3.87,3.87,0,0,1,1.32.8,3.63,3.63,0,0,1,.87,1.26A4.21,4.21,0,0,1,200.41,29.31Zm-2,0a2.62,2.62,0,0,0-.16-.93,2.21,2.21,0,0,0-.45-.74,2.07,2.07,0,0,0-.69-.49,2.19,2.19,0,0,0-.89-.18,2.13,2.13,0,0,0-1.58.66,2.1,2.1,0,0,0-.45.74,2.7,2.7,0,0,0-.16.93,2.73,2.73,0,0,0,.16,1,2.26,2.26,0,0,0,.45.75,2,2,0,0,0,.69.49,2.29,2.29,0,0,0,1.77,0,2.1,2.1,0,0,0,.69-.49,2.21,2.21,0,0,0,.45-.75A2.73,2.73,0,0,0,198.43,29.31Z" style="fill:#c72127"/><path d="M203.62,27.1v1.57h3V30.2h-3v3H201.8V25.53h5V27.1Z" style="fill:#c72127"/><path d="M28,19.59V45.92H19.82V19.59H10.21V12.76H37.65v6.84Z" style="fill:#c72127"/><path d="M69,38.87a11.87,11.87,0,0,1-3,4.22,13.71,13.71,0,0,1-4.64,2.74,19.06,19.06,0,0,1-12.09,0,13.21,13.21,0,0,1-4.57-2.74,11.87,11.87,0,0,1-2.88-4.22,14.24,14.24,0,0,1-1-5.46V12.76H49v20a9,9,0,0,0,.36,2.58,6.52,6.52,0,0,0,1.11,2.18,5.16,5.16,0,0,0,2,1.52,8.06,8.06,0,0,0,5.91,0,5.38,5.38,0,0,0,2-1.52,6,6,0,0,0,1.11-2.18,9.64,9.64,0,0,0,.34-2.58v-20H70V33.41A14,14,0,0,1,69,38.87Z" style="fill:#c72127"/><polygon points="75.08 51.02 91.75 10.21 85.79 10.21 69.13 51.02 75.08 51.02" style="fill:#c72127"/><path d="M99.84,22a12.42,12.42,0,1,0,0,24.83c4.4,0,8.9-1.93,11.32-5.39l-5.63-2.3a7.4,7.4,0,0,1-5.69,2.32,7,7,0,0,1-6.72-4.94h19A12.41,12.41,0,0,0,99.84,22Zm0,5.37a7,7,0,0,1,6.52,4.37h-13A7,7,0,0,1,99.84,27.35Z" style="fill:#c72127"/></svg>